<svg xmlns="http://www.w3.org/2000/svg" viewBox="0 0 571.14 231.42"><defs><style>.cls-1{fill:#f15a24;}.cls-2{fill:#f7931e;}.cls-3{fill:#e6e6e6;}.cls-4{fill:#f2f2f2;}.cls-5{font-size:20.29px;font-family:EstrangeloEdessa, Estrangelo Edessa;letter-spacing:0.1em;}.cls-5,.cls-6{fill:#fbb03b;}.cls-7,.cls-8{fill:none;stroke:#fbb03b;stroke-miterlimit:10;}.cls-7{stroke-width:5px;}.cls-8{stroke-width:8px;}</style></defs><g id="Слой_2" data-name="Слой 2"><g id="Слой_1-2" data-name="Слой 1"><path class="cls-1" d="M561.78,5.64H121.36A7.52,7.52,0,0,0,117.05,7a2.46,2.46,0,0,1,0,.28V14.8a3.33,3.33,0,0,1-3.34,3.34h0a3.33,3.33,0,0,1-3.34-3.34V7.27a1.53,1.53,0,0,1,0-.3,7.61,7.61,0,0,0-4.29-1.32H14.72A9.36,9.36,0,0,0,5.37,15V222.07a9.35,9.35,0,0,0,9.35,9.35H561.78a9.36,9.36,0,0,0,9.36-9.36V15A9.36,9.36,0,0,0,561.78,5.64Z"/><path class="cls-2" d="M556.41,0H116a7.55,7.55,0,0,0-4.31,1.35,2.48,2.48,0,0,1,0,.27V9.15a3.35,3.35,0,0,1-3.35,3.35h0A3.35,3.35,0,0,1,105,9.15V1.62a1.43,1.43,0,0,1,0-.29A7.59,7.59,0,0,0,100.76,0H9.36A9.35,9.35,0,0,0,0,9.36V216.42a9.36,9.36,0,0,0,9.36,9.36h91.4a7.57,7.57,0,0,0,4.3-1.33,1.27,1.27,0,0,1,0-.28v-7.53a3.33,3.33,0,0,1,3.34-3.34h0a3.33,3.33,0,0,1,3.34,3.34v7.53a2.11,2.11,0,0,1,0,.26,7.49,7.49,0,0,0,4.3,1.35H556.41a9.36,9.36,0,0,0,9.36-9.36V9.36A9.36,9.36,0,0,0,556.41,0Z"/><path class="cls-3" d="M105,10.88a1.62,1.62,0,0,0,1.62,1.62h3.45a1.63,1.63,0,0,0,1.62-1.62V1.62a2.48,2.48,0,0,0,0-.27,7.6,7.6,0,0,0-3.3,6,7.63,7.63,0,0,0-3.33-6,1.43,1.43,0,0,0,0,.29Z"/><path class="cls-3" d="M111.71,214.91a1.61,1.61,0,0,0-1.61-1.61h-3.46a1.61,1.61,0,0,0-1.61,1.61v9.26a1.27,1.27,0,0,0,0,.28,7.64,7.64,0,0,0,3.32-6,7.6,7.6,0,0,0,3.31,6,2.11,2.11,0,0,0,0-.26Z"/><rect class="cls-3" x="105.08" y="17.69" width="6.69" height="12.49" rx="1.62"/><rect class="cls-3" x="105.08" y="42.68" width="6.69" height="12.49" rx="1.62"/><rect class="cls-3" x="105.08" y="67.66" width="6.69" height="12.49" rx="1.62"/><rect class="cls-3" x="105.08" y="92.65" width="6.69" height="12.49" rx="1.62"/><rect class="cls-3" x="104.96" y="117.63" width="6.69" height="12.49" rx="1.62"/><rect class="cls-3" x="105.08" y="142.62" width="6.69" height="12.49" rx="1.62"/><rect class="cls-3" x="105.08" y="167.6" width="6.69" height="12.49" rx="1.62"/><rect class="cls-4" x="107.44" y="167.14" width="5.72" height="35.93" rx="1.4" transform="translate(150.64 396.78) rotate(-160)"/><polygon class="cls-4" points="100.67 205.1 106.04 207.41 103.28 216.36 97.91 214.05 100.67 205.1"/><path class="cls-4" d="M89.17,206.64h0a2.75,2.75,0,0,1,3.66-2l9.74,4.19a3.58,3.58,0,0,1,1.7,4.33h0a2.76,2.76,0,0,1-3.66,2L90.87,211A3.58,3.58,0,0,1,89.17,206.64Z"/><path class="cls-4" d="M96.37,193.11h0a3.56,3.56,0,0,1,1.71,4.33L94.54,209a2.77,2.77,0,0,1-3.67,2h0a3.58,3.58,0,0,1-1.7-4.33l3.54-11.51A2.75,2.75,0,0,1,96.37,193.11Z"/><rect class="cls-4" x="97.41" y="189.49" width="5.72" height="16.08" rx="2.86" transform="translate(320.18 170.88) rotate(110)"/><path class="cls-4" d="M102.42,167.82l-2.79,1.24a1.4,1.4,0,0,0-.77,1.68l13.29,44.1a1.4,1.4,0,0,0,1.91.88l2.79-1.24a1.41,1.41,0,0,0,.77-1.68l-13.29-44.11A1.4,1.4,0,0,0,102.42,167.82Z"/><path class="cls-4" d="M126.74,206.43h0c-.54-1.8-2.18-2.72-3.66-2.07l-9.74,4.3a3.71,3.71,0,0,0-1.71,4.44h0c.54,1.8,2.18,2.73,3.66,2.07l9.74-4.29A3.72,3.72,0,0,0,126.74,206.43Z"/><path class="cls-4" d="M119.53,192.55h0a3.72,3.72,0,0,0-1.71,4.44l3.55,11.81c.54,1.8,2.18,2.73,3.66,2.08h0a3.72,3.72,0,0,0,1.71-4.45l-3.54-11.81C122.66,192.82,121,191.9,119.53,192.55Z"/><path class="cls-4" d="M123.2,194.62h0c-.54-1.8-2.18-2.72-3.67-2.07l-9.74,4.3a3.71,3.71,0,0,0-1.7,4.44h0c.54,1.8,2.18,2.73,3.66,2.07l9.74-4.29A3.74,3.74,0,0,0,123.2,194.62Z"/><text class="cls-5" transform="matrix(0, 0.81, -1, 0, 42.82, 47.23)">ENDLESS VISION</text><path class="cls-6" d="M407.76,107.86h82.88a0,0,0,0,1,0,0v47.24a11.55,11.55,0,0,1-11.55,11.55H419.31a11.55,11.55,0,0,1-11.55-11.55V107.86A0,0,0,0,1,407.76,107.86Z"/><path class="cls-7" d="M439.89,65.78c-4.87-4.24-14.57-9.64-19.39-6.62-5,3.14-4.5,15.17,3.19,20.72s20.79,3.54,23.15-1.38C449.09,73.81,441.29,67,439.89,65.78Z"/><path class="cls-7" d="M458.51,65.78c4.86-4.24,14.56-9.64,19.39-6.62,5,3.14,4.49,15.17-3.2,20.72s-20.78,3.54-23.15-1.38C449.3,73.81,457.11,67,458.51,65.78Z"/><rect class="cls-6" x="402.86" y="81.24" width="92.67" height="24.09" rx="4.37"/><rect class="cls-2" x="419.8" y="132.57" width="58.79" height="9.38" transform="translate(586.46 -311.94) rotate(90)"/><rect class="cls-2" x="407.76" y="122.64" width="82.88" height="9.38" transform="translate(898.4 254.65) rotate(180)"/><path class="cls-8" d="M351.65,67.5l-23.89,41.37c-.09.16-.14.34-.22.5a5.15,5.15,0,0,0-.32.45l-23.89,41.37a8.71,8.71,0,0,0,3.19,11.91l.83.48a8.73,8.73,0,0,0,11.92-3.19L343.16,119c.09-.16.14-.34.22-.5a3.65,3.65,0,0,0,.32-.45L367.59,76.7a8.73,8.73,0,0,0-3.19-11.92l-.83-.47A8.73,8.73,0,0,0,351.65,67.5Z"/><circle class="cls-8" cx="301.41" cy="94.29" r="16.46"/><circle class="cls-8" cx="368.53" cy="135.31" r="16.46"/><path class="cls-8" d="M197.52,121.73h34.37v22.6H197.52a10.22,10.22,0,1,0,0,20.42h45.07a10.46,10.46,0,0,0,10.7-10.21v-43h0a10.46,10.46,0,0,0-10.7-10.21H208.22V78.71h34.37a10.23,10.23,0,1,0,0-20.43H197.52a10.47,10.47,0,0,0-10.7,10.22v43h0A10.46,10.46,0,0,0,197.52,121.73Z"/></g></g></svg>