<svg xmlns="http://www.w3.org/2000/svg" viewBox="0 0 566.77 226.78"><defs><style>.cls-1,.cls-6{fill:#f7931e;}.cls-1,.cls-2,.cls-5,.cls-7{stroke:#fbb03b;stroke-miterlimit:10;}.cls-2,.cls-3{fill:#e6e6e6;}.cls-4,.cls-9{fill:#fbb03b;}.cls-5,.cls-7{fill:none;}.cls-5{stroke-width:5px;}.cls-7{stroke-width:8px;}.cls-8{fill:#f2f2f2;}.cls-9{font-size:20.29px;font-family:EstrangeloEdessa, Estrangelo Edessa;letter-spacing:0.1em;}</style></defs><g id="Слой_2" data-name="Слой 2"><g id="Слой_1-2" data-name="Слой 1"><path class="cls-1" d="M556.91.5H116.49a7.55,7.55,0,0,0-4.31,1.35,2.48,2.48,0,0,1,0,.27V9.65A3.35,3.35,0,0,1,108.86,13h0a3.35,3.35,0,0,1-3.34-3.35V2.12a1.43,1.43,0,0,1,0-.29A7.59,7.59,0,0,0,101.26.51H9.86A9.35,9.35,0,0,0,.5,9.86V216.92a9.36,9.36,0,0,0,9.36,9.36h91.4a7.57,7.57,0,0,0,4.3-1.33,1.27,1.27,0,0,1,0-.28v-7.53a3.33,3.33,0,0,1,3.34-3.34h0a3.33,3.33,0,0,1,3.34,3.34v7.53a2.11,2.11,0,0,1,0,.26,7.49,7.49,0,0,0,4.3,1.35H556.91a9.36,9.36,0,0,0,9.36-9.36V9.86A9.36,9.36,0,0,0,556.91.5Z"/><path class="cls-2" d="M105.52,11.38A1.62,1.62,0,0,0,107.14,13h3.45a1.63,1.63,0,0,0,1.62-1.62V2.12a2.48,2.48,0,0,0,0-.27,7.6,7.6,0,0,0-3.3,6,7.63,7.63,0,0,0-3.33-6,1.43,1.43,0,0,0,0,.29Z"/><path class="cls-2" d="M112.21,215.41a1.61,1.61,0,0,0-1.61-1.61h-3.46a1.61,1.61,0,0,0-1.61,1.61v9.26a1.27,1.27,0,0,0,0,.28,7.64,7.64,0,0,0,3.32-6,7.6,7.6,0,0,0,3.31,6,2.11,2.11,0,0,0,0-.26Z"/><rect class="cls-3" x="105.58" y="18.19" width="6.69" height="12.49" rx="1.62"/><path class="cls-4" d="M430.52,108.36H513.4a0,0,0,0,1,0,0v47.24a11.55,11.55,0,0,1-11.55,11.55H442.07a11.55,11.55,0,0,1-11.55-11.55V108.36A0,0,0,0,1,430.52,108.36Z"/><path class="cls-5" d="M462.65,66.28c-4.87-4.24-14.56-9.64-19.39-6.62-5,3.14-4.5,15.17,3.19,20.72S467.24,83.92,469.6,79C471.85,74.31,464.05,67.5,462.65,66.28Z"/><path class="cls-5" d="M481.27,66.28c4.87-4.24,14.56-9.64,19.39-6.62,5,3.14,4.49,15.17-3.19,20.72S476.68,83.92,474.32,79C472.07,74.31,479.87,67.5,481.27,66.28Z"/><rect class="cls-4" x="425.63" y="81.74" width="92.67" height="24.09" rx="4.37"/><rect class="cls-6" x="442.56" y="133.07" width="58.79" height="9.38" transform="translate(609.72 -334.2) rotate(90)"/><rect class="cls-6" x="430.52" y="123.14" width="82.88" height="9.38" transform="translate(943.92 255.65) rotate(180)"/><path class="cls-7" d="M187.09,57.06h-1a8.73,8.73,0,0,0-8.72,8.72v8.73h-8.84a8.73,8.73,0,0,0,0,17.45h8.84v69.37a8.73,8.73,0,0,0,8.72,8.72h1a8.73,8.73,0,0,0,8.73-8.72V65.78A8.73,8.73,0,0,0,187.09,57.06Z"/><path class="cls-7" d="M279.44,65.78a8.72,8.72,0,0,0-8.72-8.72H223a8.73,8.73,0,0,0-8.73,8.72v47.78c0,.18.05.36.06.54s-.06.36-.06.55v47.77c0,.05,0,.09,0,.14s0,.09,0,.14a8.72,8.72,0,0,0,8.73,8.72h47.77a8.71,8.71,0,0,0,8.72-8.72h0V114.93c0-.19,0-.37-.05-.55s.05-.36.05-.55V66.06s0-.09,0-.14S279.44,65.83,279.44,65.78ZM232.58,114.1c0-.18,0-.36,0-.54v-39H261v39.32c0,.19.05.36.06.55s-.06.36-.06.55v39h-28.4V114.65C232.63,114.46,232.59,114.29,232.58,114.1Z"/><path class="cls-7" d="M374.41,68l-23.89,41.37c-.09.16-.14.34-.22.5a5.15,5.15,0,0,0-.32.45l-23.89,41.37a8.71,8.71,0,0,0,3.2,11.91l.83.48A8.72,8.72,0,0,0,342,160.89l23.89-41.37c.09-.16.14-.34.22-.5a5.22,5.22,0,0,0,.33-.45L390.35,77.2a8.73,8.73,0,0,0-3.19-11.92l-.83-.47A8.73,8.73,0,0,0,374.41,68Z"/><circle class="cls-7" cx="324.17" cy="94.79" r="16.46"/><circle class="cls-7" cx="391.29" cy="135.81" r="16.46"/><rect class="cls-3" x="105.58" y="43.18" width="6.69" height="12.49" rx="1.62"/><rect class="cls-3" x="105.58" y="68.16" width="6.69" height="12.49" rx="1.62"/><rect class="cls-3" x="105.58" y="93.15" width="6.69" height="12.49" rx="1.62"/><rect class="cls-3" x="105.46" y="118.13" width="6.69" height="12.49" rx="1.62"/><rect class="cls-3" x="105.58" y="143.12" width="6.69" height="12.49" rx="1.62"/><rect class="cls-3" x="105.58" y="168.1" width="6.69" height="12.49" rx="1.62"/><rect class="cls-3" x="105.56" y="192.99" width="6.69" height="12.49" rx="1.62"/><rect class="cls-8" x="107.94" y="167.64" width="5.72" height="35.93" rx="1.4" transform="translate(151.44 397.92) rotate(-160)"/><polygon class="cls-8" points="101.17 205.6 106.54 207.91 103.78 216.86 98.41 214.55 101.17 205.6"/><path class="cls-8" d="M89.67,207.14h0a2.75,2.75,0,0,1,3.66-2l9.74,4.19a3.58,3.58,0,0,1,1.7,4.33h0a2.76,2.76,0,0,1-3.66,2l-9.74-4.19A3.58,3.58,0,0,1,89.67,207.14Z"/><path class="cls-8" d="M96.87,193.61h0a3.56,3.56,0,0,1,1.71,4.33L95,209.45a2.77,2.77,0,0,1-3.67,2h0a3.58,3.58,0,0,1-1.7-4.33l3.54-11.51A2.75,2.75,0,0,1,96.87,193.61Z"/><rect class="cls-8" x="97.91" y="189.99" width="5.72" height="16.08" rx="2.86" transform="translate(321.32 171.08) rotate(110)"/><path class="cls-8" d="M102.92,168.32l-2.79,1.24a1.4,1.4,0,0,0-.77,1.68l13.29,44.1a1.4,1.4,0,0,0,1.91.88l2.79-1.24a1.41,1.41,0,0,0,.77-1.68l-13.29-44.11A1.4,1.4,0,0,0,102.92,168.32Z"/><path class="cls-8" d="M127.24,206.93h0c-.54-1.8-2.18-2.72-3.66-2.07l-9.74,4.3a3.71,3.71,0,0,0-1.71,4.44h0c.54,1.8,2.18,2.73,3.66,2.07l9.74-4.29A3.72,3.72,0,0,0,127.24,206.93Z"/><path class="cls-8" d="M120,193.05h0a3.72,3.72,0,0,0-1.71,4.44l3.55,11.81c.54,1.8,2.18,2.73,3.66,2.08h0a3.72,3.72,0,0,0,1.71-4.45l-3.54-11.81C123.16,193.32,121.52,192.4,120,193.05Z"/><path class="cls-8" d="M123.7,195.12h0c-.54-1.8-2.18-2.72-3.67-2.07l-9.74,4.3a3.71,3.71,0,0,0-1.7,4.44h0c.54,1.8,2.18,2.73,3.66,2.07l9.74-4.29A3.74,3.74,0,0,0,123.7,195.12Z"/><text class="cls-9" transform="matrix(0, 0.81, -1, 0, 43.32, 47.73)">ENDLESS VISION</text></g></g></svg>