<svg xmlns="http://www.w3.org/2000/svg" viewBox="0 0 143.98 242.25"><defs><style>.cls-1,.cls-2{fill:#4d4d4d;}.cls-2,.cls-8{font-size:20px;font-family:MicrosoftSansSerif, Microsoft Sans Serif;}.cls-3{fill:#a29fcf;}.cls-4,.cls-8{fill:#27234d;}.cls-5{fill:#586c7e;}.cls-6{fill:#39b54a;}.cls-7{fill:#009245;}</style></defs><g id="Слой_2" data-name="Слой 2"><g id="Слой_1-2" data-name="Слой 1"><polygon class="cls-1" points="53.79 42.76 51.17 42.76 50.01 2.02 55.01 2.02 53.79 42.76"/><polygon class="cls-1" points="49.16 41.85 51.43 40.22 36.02 4.22 31.03 6.02 49.16 41.85"/><polygon class="cls-1" points="49.83 43.16 51.14 40.34 17.03 14.24 12.79 18.45 49.83 43.16"/><path class="cls-1" d="M36.86,42.76c0-5.75,7-10.42,15.65-10.42,20.77.56,20.77,20.29,0,20.85C43.87,53.19,36.86,48.52,36.86,42.76Z"/><path class="cls-1" d="M95,141.33l6.52-98.57H52.2V242.23H80.43l6-100.9Z"/><polygon class="cls-1" points="16.42 242.23 52.51 242.23 52.51 129.01 8.93 129.03 16.42 242.23"/><polygon class="cls-1" points="52.51 42.76 3.23 42.76 7.3 104.36 52.51 104.36 52.51 42.76"/><polygon class="cls-1" points="132.97 141.33 94.08 141.33 97.41 92.05 143.98 92.05 132.97 141.33"/><polygon class="cls-1" points="34.42 242.23 37.03 242.06 35.75 129.11 31.79 129.09 34.42 242.23"/><polygon class="cls-1" points="34.77 42.76 29.78 42.76 31.2 104.02 35.47 104.02 34.77 42.76"/><polygon class="cls-1" points="54.65 242.23 52.03 242.23 50.87 43.16 55.87 43.16 54.65 242.23"/><polygon class="cls-1" points="72.74 242.23 70.08 242.23 72.4 42.78 77.4 42.78 72.74 242.23"/><polygon class="cls-1" points="93.06 141.33 90.44 141.33 92.72 42.78 97.71 42.78 93.06 141.33"/><polygon class="cls-1" points="116.88 141.33 114.26 141.33 115.69 92.05 120.68 92.05 116.88 141.33"/><polygon class="cls-1" points="17.45 242.23 20.07 242.23 16.81 129.04 12.84 129.03 17.45 242.23"/><polygon class="cls-1" points="14.32 42.76 9.32 42.76 11.82 104.04 16.09 104.04 14.32 42.76"/><polygon class="cls-1" points="100.85 52.32 3.86 52.32 3.25 42.78 101.79 42.76 100.85 52.32"/><polygon class="cls-1" points="98.09 73.22 6.86 73.22 5.67 53.27 99.36 53.24 98.09 73.22"/><polygon class="cls-1" points="141.89 101.59 97.71 101.59 98.54 92.05 143.98 92.05 141.89 101.59"/><polygon class="cls-1" points="90.11 69.5 6.48 73.25 5.3 53.3 98.99 53.27 90.11 69.5"/><text class="cls-2" transform="translate(11.57 69.5) scale(0.4 1)">Doofenshmirtz Evil Inc .</text><text/><path class="cls-1" d="M3.21,40.74C3.21,18.24,25.27,0,52.49,0c65.38,2.18,65.37,79.3,0,81.48C25.27,81.48,3.21,63.24,3.21,40.74Z"/><path class="cls-3" d="M0,42.79C0,20.29,22.06,2.05,49.28,2.05c65.38,2.18,65.37,79.3,0,81.48C22.06,83.53,0,65.29,0,42.79Z"/><polygon class="cls-4" points="50.56 42.79 47.94 42.79 46.78 2.05 51.78 2.05 50.56 42.79"/><polygon class="cls-4" points="52.45 41.87 50.18 40.25 65.59 4.25 70.58 6.04 52.45 41.87"/><polygon class="cls-4" points="51.78 43.18 50.48 40.36 84.58 14.26 88.83 18.47 51.78 43.18"/><polygon class="cls-4" points="45.93 41.87 48.2 40.25 32.79 4.25 27.8 6.04 45.93 41.87"/><polygon class="cls-4" points="46.6 43.18 47.91 40.36 13.79 14.26 9.55 18.47 46.6 43.18"/><path class="cls-4" d="M33.63,42.79c0-5.76,7-10.43,15.65-10.43,20.77.56,20.76,20.3,0,20.85C40.64,53.21,33.63,48.54,33.63,42.79Z"/><polygon class="cls-4" points="12.84 129.03 8.42 104.04 17.22 104.04 12.84 129.03"/><path class="cls-5" d="M91.73,141.35l6.51-98.56H49V242.25H77.19l6-100.9Z"/><polygon class="cls-5" points="13.18 242.25 49.28 242.25 49.28 129.03 5.7 129.03 13.18 242.25"/><polygon class="cls-5" points="49.28 42.79 0 42.79 4.07 104.39 49.28 104.39 49.28 42.79"/><polygon class="cls-5" points="129.73 141.35 90.84 141.35 94.18 92.07 140.74 92.07 129.73 141.35"/><polygon class="cls-3" points="31.18 242.25 33.8 242.25 32.52 129.03 28.55 129.03 31.18 242.25"/><polygon class="cls-3" points="31.54 42.79 26.54 42.79 27.97 104.04 32.23 104.04 31.54 42.79"/><polygon class="cls-3" points="51.41 242.25 48.8 242.25 47.63 43.18 52.63 43.18 51.41 242.25"/><polygon class="cls-3" points="69.51 242.25 66.84 242.25 69.17 42.8 74.17 42.8 69.51 242.25"/><polygon class="cls-3" points="89.82 141.35 87.21 141.35 89.49 42.8 94.48 42.8 89.82 141.35"/><polygon class="cls-3" points="113.65 141.35 111.03 141.35 112.45 92.07 117.45 92.07 113.65 141.35"/><polygon class="cls-3" points="14.22 242.25 16.84 242.25 13.57 129.03 9.6 129.03 14.22 242.25"/><polygon class="cls-3" points="11.09 42.79 6.09 42.79 8.6 104.36 12.87 104.39 11.09 42.79"/><polygon class="cls-4" points="97.61 52.34 0.63 52.34 0.01 42.8 98.56 42.79 97.61 52.34"/><polygon class="cls-6" points="94.86 73.24 3.62 73.24 2.44 53.29 96.13 53.26 94.86 73.24"/><polygon class="cls-4" points="138.66 101.62 94.48 101.62 94.99 92.07 140.74 92.07 138.66 101.62"/><polygon class="cls-7" points="86.87 69.52 3.25 73.28 2.07 53.32 95.76 53.29 86.87 69.52"/><text class="cls-8" transform="translate(8.34 69.52) scale(0.4 1)">Foofelshmirtz Evil Inc .</text><text/></g></g></svg>