<svg xmlns="http://www.w3.org/2000/svg" viewBox="0 0 155 155"><defs><style>.cls-1{fill:#fcd200;stroke:#ffe729;}.cls-1,.cls-2,.cls-3,.cls-5{stroke-miterlimit:10;}.cls-1,.cls-3,.cls-5{stroke-width:5px;}.cls-2{fill:gray;}.cls-2,.cls-3{stroke:gray;}.cls-3,.cls-5{fill:none;}.cls-4{fill:#f2f2f2;}.cls-5{stroke:#e84e0f;}.cls-6{fill:#e6e6e6;}.cls-7{fill:#e84e0f;}</style></defs><g id="Слой_2" data-name="Слой 2"><g id="Слой_1-2" data-name="Слой 1"><circle class="cls-1" cx="77.5" cy="77.5" r="75"/><rect class="cls-2" x="42.37" y="50.92" width="73.51" height="73.51" rx="11.55"/><path class="cls-3" d="M70.87,37.21c-4.32-3.76-12.92-8.55-17.2-5.87-4.45,2.79-4,13.45,2.83,18.38S74.94,52.86,77,48.49C79,44.34,72.11,38.3,70.87,37.21Z"/><path class="cls-3" d="M87.39,37.21c4.31-3.76,12.91-8.55,17.2-5.87s4,13.45-2.84,18.38-18.44,3.14-20.53-1.23C79.22,44.34,86.15,38.3,87.39,37.21Z"/><rect class="cls-2" x="38.03" y="50.92" width="82.2" height="21.36" rx="4.37"/><rect class="cls-2" x="40.4" y="81.55" width="77.46" height="8.32" transform="translate(164.83 6.58) rotate(90)"/><rect class="cls-2" x="42.37" y="85.39" width="73.51" height="8.32" transform="translate(158.25 179.1) rotate(180)"/><rect class="cls-4" x="40.64" y="47.54" width="73.51" height="73.51" rx="11.55"/><path class="cls-5" d="M69.13,33.83C64.82,30.07,56.22,25.28,51.94,28c-4.45,2.78-4,13.45,2.83,18.37s18.44,3.15,20.54-1.22C77.3,41,70.38,34.91,69.13,33.83Z"/><path class="cls-5" d="M85.66,33.83C90,30.07,98.57,25.28,102.86,28s4,13.45-2.84,18.37-18.44,3.15-20.54-1.22C77.49,41,84.41,34.91,85.66,33.83Z"/><rect class="cls-6" x="36.3" y="47.54" width="82.2" height="21.36" rx="4.37"/><rect class="cls-7" x="38.66" y="78.16" width="77.46" height="8.32" transform="translate(159.72 4.93) rotate(90)"/><rect class="cls-7" x="40.64" y="82.01" width="73.51" height="8.32" transform="translate(154.79 172.33) rotate(180)"/></g></g></svg>