<svg xmlns="http://www.w3.org/2000/svg" viewBox="0 0 53.91 128.45"><defs><style>.cls-1{fill:#666;}.cls-2{fill:#009640;}.cls-3{fill:#5fae30;}.cls-4{fill:#c2240c;}.cls-5{fill:#4d4d4d;}.cls-6{fill:#00afbf;}.cls-7{fill:#fd0;}</style></defs><g id="Слой_2" data-name="Слой 2"><g id="Слой_1-2" data-name="Слой 1"><rect class="cls-1" x="22.83" y="99.46" width="9.52" height="9.52" rx="2.53"/><rect class="cls-1" x="10.41" y="99.46" width="9.52" height="9.52" rx="2.53"/><rect class="cls-1" x="22.83" y="66.48" width="9.52" height="9.52" rx="2.53"/><rect class="cls-1" x="35.24" y="66.48" width="9.52" height="9.52" rx="2.53"/><rect class="cls-1" x="10.41" y="66.48" width="9.52" height="9.52" rx="2.53"/><rect class="cls-1" x="22.83" y="33.5" width="9.52" height="9.52" rx="2.53"/><rect class="cls-1" x="35.24" y="33.5" width="9.52" height="9.52" rx="2.53"/><rect class="cls-1" x="10.41" y="33.5" width="9.52" height="9.52" rx="2.53"/><polygon class="cls-2" points="46.14 128.45 10.33 128.45 2.56 0 53.91 0 46.14 128.45"/><polygon class="cls-3" points="41.81 128.45 7.46 128.45 0 2.36 49.27 2.36 41.81 128.45"/><path class="cls-4" d="M31.56,128.45H17.71v-9.64a3.52,3.52,0,0,1,3.52-3.52H28a3.52,3.52,0,0,1,3.52,3.52Z"/><rect class="cls-5" x="20.4" y="97.65" width="8.47" height="8.47" rx="2.53"/><rect class="cls-5" x="31.44" y="97.65" width="8.47" height="8.47" rx="2.53"/><rect class="cls-5" x="9.37" y="97.65" width="8.47" height="8.47" rx="2.53"/><rect class="cls-5" x="20.24" y="64.57" width="8.79" height="8.79" rx="2.53"/><rect class="cls-5" x="31.69" y="64.57" width="8.79" height="8.79" rx="2.53"/><rect class="cls-5" x="8.79" y="64.57" width="8.79" height="8.79" rx="2.53"/><rect class="cls-5" x="19.87" y="30.64" width="9.52" height="9.52" rx="2.53"/><rect class="cls-5" x="32.29" y="30.64" width="9.52" height="9.52" rx="2.53"/><rect class="cls-5" x="7.46" y="30.64" width="9.52" height="9.52" rx="2.53"/><rect class="cls-6" x="20.4" y="96.59" width="8.47" height="8.47" rx="2.53"/><rect class="cls-6" x="31.44" y="96.59" width="8.47" height="8.47" rx="2.53"/><rect class="cls-6" x="9.37" y="96.59" width="8.47" height="8.47" rx="2.53"/><rect class="cls-6" x="20.24" y="63.47" width="8.79" height="8.79" rx="2.53"/><rect class="cls-6" x="31.69" y="63.47" width="8.79" height="8.79" rx="2.53"/><rect class="cls-6" x="8.79" y="63.47" width="8.79" height="8.79" rx="2.53"/><polygon class="cls-7" points="44.27 86.95 5 86.95 4.61 80.4 44.65 80.4 44.27 86.95"/><rect class="cls-6" x="19.87" y="29.45" width="9.52" height="9.52" rx="2.53"/><rect class="cls-6" x="32.29" y="29.45" width="9.52" height="9.52" rx="2.53"/><rect class="cls-6" x="7.46" y="29.45" width="9.52" height="9.52" rx="2.53"/><polygon class="cls-7" points="48.17 21 1.1 21 0.71 14.45 48.55 14.45 48.17 21"/><polygon class="cls-7" points="46.22 53.97 3.05 53.97 2.66 47.42 46.6 47.42 46.22 53.97"/><path class="cls-2" d="M0,2.36,2.56,0l.1,2.36"/><polygon class="cls-2" points="2.56 0 2.72 0 2.72 2.36 2.58 2.36 2.56 0"/></g></g></svg>