<svg xmlns="http://www.w3.org/2000/svg" viewBox="0 0 571.13 231.42"><defs><style>.cls-1{fill:#f15a24;}.cls-2{fill:#f7931e;}.cls-3,.cls-6,.cls-7,.cls-8{fill:#e6e6e6;}.cls-4{fill:#f2f2f2;}.cls-5{font-size:20.29px;fill:#fbb03b;font-family:EstrangeloEdessa, Estrangelo Edessa;letter-spacing:0.1em;}.cls-6{font-size:100px;letter-spacing:0.05em;}.cls-6,.cls-7,.cls-8{stroke:#f7931e;stroke-miterlimit:10;stroke-width:5px;}.cls-6,.cls-7{font-family:a_BighausTitul-ExtraBold, a_BighausTitul;font-weight:800;}.cls-7{font-size:56.7px;letter-spacing:0.05em;}</style></defs><g id="Слой_2" data-name="Слой 2"><g id="Слой_1-2" data-name="Слой 1"><path class="cls-1" d="M561.78,5.64H121.36A7.56,7.56,0,0,0,117,7a1.24,1.24,0,0,1,0,.27V14.8a3.35,3.35,0,0,1-3.34,3.34h0a3.35,3.35,0,0,1-3.35-3.34V7.26a2.85,2.85,0,0,1,0-.29,7.58,7.58,0,0,0-4.28-1.32H14.72A9.36,9.36,0,0,0,5.36,15V222.06a9.36,9.36,0,0,0,9.36,9.36H561.78a9.35,9.35,0,0,0,9.35-9.36V15A9.35,9.35,0,0,0,561.78,5.64Z"/><path class="cls-2" d="M556.41,0H116a7.55,7.55,0,0,0-4.31,1.35,2.48,2.48,0,0,1,0,.27V9.15a3.35,3.35,0,0,1-3.35,3.35h0A3.35,3.35,0,0,1,105,9.15V1.62a1.43,1.43,0,0,1,0-.29A7.59,7.59,0,0,0,100.76,0H9.36A9.35,9.35,0,0,0,0,9.36V216.42a9.36,9.36,0,0,0,9.36,9.36h91.4a7.57,7.57,0,0,0,4.3-1.33,1.27,1.27,0,0,1,0-.28v-7.53a3.33,3.33,0,0,1,3.34-3.34h0a3.33,3.33,0,0,1,3.34,3.34v7.53a2.11,2.11,0,0,1,0,.26,7.49,7.49,0,0,0,4.3,1.35H556.41a9.36,9.36,0,0,0,9.36-9.36V9.36A9.36,9.36,0,0,0,556.41,0Z"/><path class="cls-3" d="M105,10.88a1.62,1.62,0,0,0,1.62,1.62h3.45a1.63,1.63,0,0,0,1.62-1.62V1.62a2.48,2.48,0,0,0,0-.27,7.6,7.6,0,0,0-3.3,6,7.63,7.63,0,0,0-3.33-6,1.43,1.43,0,0,0,0,.29Z"/><path class="cls-3" d="M111.71,214.91a1.61,1.61,0,0,0-1.61-1.61h-3.46a1.61,1.61,0,0,0-1.61,1.61v9.26a1.27,1.27,0,0,0,0,.28,7.64,7.64,0,0,0,3.32-6,7.6,7.6,0,0,0,3.31,6,2.11,2.11,0,0,0,0-.26Z"/><rect class="cls-3" x="105.08" y="17.69" width="6.69" height="12.49" rx="1.62"/><rect class="cls-2" x="445.08" y="132.57" width="58.79" height="9.38" transform="translate(611.74 -337.21) rotate(90)"/><rect class="cls-2" x="433.04" y="122.64" width="82.88" height="9.38" transform="translate(948.95 254.65) rotate(180)"/><rect class="cls-3" x="105.08" y="42.68" width="6.69" height="12.49" rx="1.62"/><rect class="cls-3" x="105.08" y="67.66" width="6.69" height="12.49" rx="1.62"/><rect class="cls-3" x="105.08" y="92.65" width="6.69" height="12.49" rx="1.62"/><rect class="cls-3" x="104.96" y="117.63" width="6.69" height="12.49" rx="1.62"/><rect class="cls-3" x="105.08" y="142.62" width="6.69" height="12.49" rx="1.62"/><rect class="cls-3" x="105.08" y="167.6" width="6.69" height="12.49" rx="1.62"/><rect class="cls-4" x="107.44" y="167.14" width="5.72" height="35.93" rx="1.4" transform="translate(150.64 396.78) rotate(-160)"/><polygon class="cls-4" points="100.67 205.1 106.04 207.41 103.28 216.36 97.91 214.05 100.67 205.1"/><path class="cls-4" d="M89.17,206.64h0a2.75,2.75,0,0,1,3.66-2l9.74,4.19a3.58,3.58,0,0,1,1.7,4.33h0a2.76,2.76,0,0,1-3.66,2L90.87,211A3.58,3.58,0,0,1,89.17,206.64Z"/><path class="cls-4" d="M96.37,193.11h0a3.56,3.56,0,0,1,1.71,4.33L94.54,209a2.77,2.77,0,0,1-3.67,2h0a3.58,3.58,0,0,1-1.7-4.33l3.54-11.51A2.75,2.75,0,0,1,96.37,193.11Z"/><rect class="cls-4" x="97.41" y="189.49" width="5.72" height="16.08" rx="2.86" transform="translate(320.18 170.88) rotate(110)"/><path class="cls-4" d="M102.42,167.82l-2.79,1.24a1.4,1.4,0,0,0-.77,1.68l13.29,44.1a1.4,1.4,0,0,0,1.91.88l2.79-1.24a1.41,1.41,0,0,0,.77-1.68l-13.29-44.11A1.4,1.4,0,0,0,102.42,167.82Z"/><path class="cls-4" d="M126.74,206.43h0c-.54-1.8-2.18-2.72-3.66-2.07l-9.74,4.3a3.71,3.71,0,0,0-1.71,4.44h0c.54,1.8,2.18,2.73,3.66,2.07l9.74-4.29A3.72,3.72,0,0,0,126.74,206.43Z"/><path class="cls-4" d="M119.53,192.55h0a3.72,3.72,0,0,0-1.71,4.44l3.55,11.81c.54,1.8,2.18,2.73,3.66,2.08h0a3.72,3.72,0,0,0,1.71-4.45l-3.54-11.81C122.66,192.82,121,191.9,119.53,192.55Z"/><path class="cls-4" d="M123.2,194.62h0c-.54-1.8-2.18-2.72-3.67-2.07l-9.74,4.3a3.71,3.71,0,0,0-1.7,4.44h0c.54,1.8,2.18,2.73,3.66,2.07l9.74-4.29A3.74,3.74,0,0,0,123.2,194.62Z"/><text class="cls-5" transform="translate(42.82 47.22) rotate(90) scale(0.81 1)">ENDLESS VISION</text><text class="cls-6" transform="translate(154.71 98.9) scale(0.81 1)">ЛОТЕРЕЯ</text><text class="cls-7" transform="translate(117.31 135.26) scale(0.81 1)">Кол-во билетов:</text><rect class="cls-8" x="192.31" y="144.79" width="282.25" height="70.61" rx="17.69"/></g></g></svg>