<svg xmlns="http://www.w3.org/2000/svg" viewBox="0 0 84.43 100.26"><defs><style>.cls-1{fill:gray;}.cls-1,.cls-2{stroke:gray;}.cls-1,.cls-2,.cls-4{stroke-miterlimit:10;}.cls-2,.cls-4{fill:none;stroke-width:5px;}.cls-3{fill:#f2f2f2;}.cls-4{stroke:#e84e0f;}.cls-5{fill:#e6e6e6;}.cls-6{fill:#e84e0f;}</style></defs><g id="Слой_2" data-name="Слой 2"><g id="Слой_1-2" data-name="Слой 1"><rect class="cls-1" x="6.07" y="26.24" width="73.51" height="73.51" rx="11.55"/><path class="cls-2" d="M34.57,12.54C30.26,8.77,21.65,4,17.37,6.67c-4.44,2.78-4,13.45,2.84,18.37s18.43,3.14,20.53-1.22C42.74,19.66,35.81,13.62,34.57,12.54Z"/><path class="cls-2" d="M51.09,12.54C55.4,8.77,64,4,68.29,6.67c4.44,2.78,4,13.45-2.84,18.37S47,28.18,44.92,23.82C42.92,19.66,49.85,13.62,51.09,12.54Z"/><rect class="cls-1" x="1.73" y="26.24" width="82.2" height="21.36" rx="4.37"/><rect class="cls-1" x="4.1" y="56.87" width="77.46" height="8.32" transform="translate(103.86 18.2) rotate(90)"/><rect class="cls-1" x="6.07" y="60.71" width="73.51" height="8.32" transform="translate(85.66 129.74) rotate(180)"/><rect class="cls-3" x="4.34" y="22.86" width="73.51" height="73.51" rx="11.55"/><path class="cls-4" d="M32.84,9.15C28.52,5.39,19.92.6,15.64,3.28c-4.44,2.79-4,13.45,2.83,18.38S36.91,24.8,39,20.43C41,16.28,34.08,10.23,32.84,9.15Z"/><path class="cls-4" d="M49.36,9.15C53.67,5.39,62.28.6,66.56,3.28c4.44,2.79,4,13.45-2.84,18.38S45.28,24.8,43.19,20.43C41.19,16.28,48.12,10.23,49.36,9.15Z"/><rect class="cls-5" y="22.86" width="82.2" height="21.36" rx="4.37"/><rect class="cls-6" x="2.37" y="53.48" width="77.46" height="8.32" transform="translate(98.74 16.55) rotate(90)"/><rect class="cls-6" x="4.34" y="57.33" width="73.51" height="8.32" transform="translate(82.2 122.98) rotate(180)"/></g></g></svg>