<svg xmlns="http://www.w3.org/2000/svg" viewBox="0 0 61.27 128.45"><defs><style>.cls-1{fill:#666;}.cls-2{fill:#c2240c;}.cls-3{fill:#eb5d0b;}.cls-4{fill:#f4c200;}.cls-5{fill:#4d4d4d;}.cls-6{fill:#2db9dd;}.cls-7{fill:#ee8900;}</style></defs><g id="Слой_2" data-name="Слой 2"><g id="Слой_1-2" data-name="Слой 1"><rect class="cls-1" x="25.69" y="99.46" width="9.52" height="9.52" rx="2.53"/><rect class="cls-1" x="13.28" y="99.46" width="9.52" height="9.52" rx="2.53"/><rect class="cls-1" x="25.69" y="66.48" width="9.52" height="9.52" rx="2.53"/><rect class="cls-1" x="38.11" y="66.48" width="9.52" height="9.52" rx="2.53"/><rect class="cls-1" x="13.28" y="66.48" width="9.52" height="9.52" rx="2.53"/><rect class="cls-1" x="25.69" y="33.5" width="9.52" height="9.52" rx="2.53"/><rect class="cls-1" x="38.11" y="33.5" width="9.52" height="9.52" rx="2.53"/><rect class="cls-1" x="13.28" y="33.5" width="9.52" height="9.52" rx="2.53"/><polyline class="cls-2" points="50.39 128.45 13.44 128.45 5.43 0 58.41 0"/><polygon class="cls-2" points="55.92 85.88 11.62 85.88 11.27 79.2 56.27 79.2 55.92 85.88"/><polygon class="cls-2" points="58.38 52.58 9.16 52.58 8.77 45.91 58.77 45.91 58.38 52.58"/><polygon class="cls-2" points="60.84 18.98 6.7 18.98 6.27 12.31 61.27 12.31 60.84 18.98"/><polyline class="cls-3" points="44.68 128.45 10.32 128.45 2.87 2.36 52.13 2.36"/><path class="cls-4" d="M35.15,128.45H19.85v-11a3.52,3.52,0,0,1,3.52-3.52h8.26a3.52,3.52,0,0,1,3.52,3.52Z"/><rect class="cls-5" x="22.74" y="97.11" width="9.52" height="8.74" rx="2.18"/><rect class="cls-5" x="35.15" y="97.11" width="9.52" height="8.74" rx="2.18"/><rect class="cls-5" x="10.32" y="97.11" width="9.52" height="8.74" rx="2.18"/><rect class="cls-5" x="22.74" y="63.2" width="9.52" height="10.92" rx="2.53"/><rect class="cls-5" x="35.15" y="63.2" width="9.52" height="10.92" rx="2.53"/><rect class="cls-5" x="10.32" y="63.2" width="9.52" height="10.92" rx="2.53"/><rect class="cls-5" x="22.7" y="28.58" width="9.52" height="13.1" rx="2.53"/><rect class="cls-5" x="35.11" y="28.58" width="9.52" height="13.1" rx="2.53"/><rect class="cls-5" x="10.28" y="28.58" width="9.52" height="13.1" rx="2.53"/><rect class="cls-6" x="22.74" y="95.85" width="9.52" height="8.74" rx="2.18"/><rect class="cls-6" x="10.32" y="95.85" width="9.52" height="8.74" rx="2.18"/><rect class="cls-6" x="35.15" y="95.85" width="9.52" height="8.74" rx="2.18"/><rect class="cls-6" x="22.74" y="61.62" width="9.52" height="10.92" rx="2.53"/><rect class="cls-6" x="35.15" y="61.62" width="9.52" height="10.92" rx="2.53"/><rect class="cls-6" x="10.32" y="61.62" width="9.52" height="10.92" rx="2.53"/><polygon class="cls-7" points="49.65 86.66 5.35 86.66 5 80.11 50 80.11 49.65 86.66"/><polygon class="cls-7" points="52.11 53.97 2.89 53.97 2.5 47.42 52.5 47.42 52.11 53.97"/><polygon class="cls-7" points="54.57 21 0.42 21 0 14.45 55 14.45 54.57 21"/><rect class="cls-6" x="22.7" y="26.68" width="9.52" height="13.1" rx="2.53"/><rect class="cls-6" x="35.11" y="26.68" width="9.52" height="13.1" rx="2.53"/><rect class="cls-6" x="10.28" y="26.68" width="9.52" height="13.1" rx="2.53"/><path class="cls-2" d="M2.87,2.36,5.43,0l.1,2.36"/><polygon class="cls-2" points="5.43 0 5.58 0 5.58 2.36 5.44 2.36 5.43 0"/></g></g></svg>