<svg xmlns="http://www.w3.org/2000/svg" xmlns:xlink="http://www.w3.org/1999/xlink" viewBox="0 0 1080 1095.6"><defs><style>.cls-1{fill:none;}.cls-2{fill:#1d1d1b;}.cls-3{fill:#e6e6e6;}.cls-4,.cls-9{fill:#333;}.cls-5{fill:#fff;}.cls-6{fill:#ce1126;}.cls-7{fill:#002654;}.cls-8{fill:url(#_6_dpi_80_);}.cls-9{font-size:116.7px;font-family:SegoeScript-Bold, Segoe Script;font-weight:700;}</style><pattern id="_6_dpi_80_" data-name="6 dpi 80%" width="48" height="48" patternUnits="userSpaceOnUse" viewBox="0 0 48 48"><rect class="cls-1" width="48" height="48"/><circle class="cls-2" cx="24" cy="48" r="9.6"/><circle class="cls-2" cx="48" cy="48" r="9.6"/><circle class="cls-2" cx="24" cy="24" r="9.6"/><circle class="cls-2" cx="48" cy="24" r="9.6"/><circle class="cls-2" cx="36" cy="36" r="9.6"/><circle class="cls-2" cx="12" cy="36" r="9.6"/><circle class="cls-2" cx="36" cy="12" r="9.6"/><circle class="cls-2" cx="12" cy="12" r="9.6"/><circle class="cls-2" cy="48" r="9.6"/><circle class="cls-2" cy="24" r="9.6"/><circle class="cls-2" cx="24" r="9.6"/><circle class="cls-2" cx="48" r="9.6"/><circle class="cls-2" r="9.6"/></pattern></defs><g id="Слой_2" data-name="Слой 2"><g id="Слой_1-2" data-name="Слой 1"><rect class="cls-3" width="1080" height="1080" rx="75"/><rect class="cls-4" x="97.14" y="101.32" width="880" height="817.99" rx="75"/><rect class="cls-5" x="421.34" y="236.46" width="237.22" height="537"/><path class="cls-6" d="M658.53,236.46H820.75a75,75,0,0,1,75,75v387a75,75,0,0,1-75,75H658.53a0,0,0,0,1,0,0v-537A0,0,0,0,1,658.53,236.46Z"/><path class="cls-7" d="M259.89,236.46H421.34a0,0,0,0,1,0,0v537a0,0,0,0,1,0,0H259.12a75,75,0,0,1-75-75V312.23a75.77,75.77,0,0,1,75.77-75.77Z"/><path class="cls-8" d="M636.31,667.1a3.12,3.12,0,0,0,.35-1.4l0-18.1c0-2.66-3.57-4.82-8-4.82H610.3l-17.08-51.6A4.8,4.8,0,0,0,597,586.5l0-18.1a4.81,4.81,0,0,0-4.81-4.82H582.05l-30.9-220.44a8.48,8.48,0,0,0,3-6.52v-23a8.52,8.52,0,0,0-8.52-8.52h-4V281a1.64,1.64,0,0,0-1.65-1.64h-.83V259.21a3.23,3.23,0,0,0,1.52-2.74v-1.55a3.23,3.23,0,0,0-3.23-3.24h-1.55a3.24,3.24,0,0,0-3.24,3.24v1.55a3.24,3.24,0,0,0,1.53,2.74v20.16h-.83a1.64,1.64,0,0,0-1.65,1.64v24.13h-4a8.53,8.53,0,0,0-8.52,8.52v23a8.5,8.5,0,0,0,3.19,6.64L491.51,563.58H481.19a4.81,4.81,0,0,0-4.81,4.81v18.1a4.81,4.81,0,0,0,3.63,4.65l-17.08,51.64H444.67c-4.41,0-8,2.16-8,4.81v18.1a2.92,2.92,0,0,0,.2,1l-35.07,90.2h47c24.22,0,62.14-40.06,86.36-40.06s64.85,40.06,89.07,40.06h47ZM536.78,381.69l25.49,181.89h-51ZM505.65,642.78l17-51.48h27.86l17,51.48Z"/><text class="cls-9" transform="translate(279.04 1037.82) scale(0.95 1)">Bonjour!</text></g></g></svg>