<svg xmlns="http://www.w3.org/2000/svg" viewBox="0 0 141.32 124.62"><defs><style>.cls-1{fill:#4d4d4d;}.cls-2{fill:#736357;}.cls-3{fill:#00a99d;}.cls-4{fill:#c2240c;}.cls-5{fill:#e6e6e6;}.cls-6{fill:#b3b3b3;}.cls-7{fill:#ccc;}.cls-8{fill:#f2f2f2;}</style></defs><g id="Слой_2" data-name="Слой 2"><g id="Слой_1-2" data-name="Слой 1"><path class="cls-1" d="M141.32,0h-7.15V0l-.44,0H88.6L84.31,3.67H52.48V0h-49L0,3H3.45V117.34a7.17,7.17,0,0,0,7.09,7.26H52.72V48.35H88.6v69a7.43,7.43,0,0,0,7.59,7.26h45.13V7.26s0-.07,0-.11h0Z"/><rect class="cls-2" x="41.01" y="6.6" width="55.78" height="43.61"/><path class="cls-2" d="M137.87,124.62H95.69a7.09,7.09,0,0,1-7.09-7.09V3h49.27Z"/><path class="cls-2" d="M7.14,124.62H49.27V3H0V117.49A7.13,7.13,0,0,0,7.14,124.62Z"/><rect class="cls-1" x="117.88" y="107.57" width="11.75" height="11.75"/><rect class="cls-1" x="96.75" y="107.3" width="11.75" height="11.75"/><rect class="cls-1" x="117.88" y="83.8" width="11.75" height="11.75"/><rect class="cls-1" x="96.75" y="83.53" width="11.75" height="11.75"/><rect class="cls-1" x="117.88" y="59.76" width="11.75" height="11.75"/><rect class="cls-1" x="96.75" y="59.49" width="11.75" height="11.75"/><rect class="cls-1" x="117.88" y="35.99" width="11.75" height="11.75"/><rect class="cls-1" x="96.75" y="35.72" width="11.75" height="11.75"/><rect class="cls-1" x="117.88" y="12.48" width="11.75" height="11.75"/><rect class="cls-1" x="96.75" y="12.22" width="11.75" height="11.75"/><rect class="cls-1" x="8.15" y="107.57" width="11.75" height="11.75"/><rect class="cls-1" x="29.28" y="107.3" width="11.75" height="11.75"/><rect class="cls-1" x="8.15" y="83.8" width="11.75" height="11.75"/><rect class="cls-1" x="29.28" y="83.53" width="11.75" height="11.75"/><rect class="cls-1" x="8.15" y="59.76" width="11.75" height="11.75"/><rect class="cls-1" x="29.28" y="59.49" width="11.75" height="11.75"/><rect class="cls-1" x="8.15" y="35.99" width="11.75" height="11.75"/><rect class="cls-1" x="29.28" y="35.72" width="11.75" height="11.75"/><rect class="cls-1" x="8.15" y="12.48" width="11.75" height="11.75"/><rect class="cls-1" x="29.28" y="12.22" width="11.75" height="11.75"/><rect class="cls-3" x="117.92" y="105.05" width="11.75" height="11.75"/><rect class="cls-3" x="96.8" y="104.79" width="11.75" height="11.75"/><rect class="cls-3" x="117.92" y="81.28" width="11.75" height="11.75"/><rect class="cls-3" x="96.8" y="81.02" width="11.75" height="11.75"/><rect class="cls-3" x="117.92" y="57.24" width="11.75" height="11.75"/><rect class="cls-3" x="96.8" y="56.98" width="11.75" height="11.75"/><rect class="cls-3" x="117.92" y="33.47" width="11.75" height="11.75"/><rect class="cls-3" x="96.8" y="33.21" width="11.75" height="11.75"/><rect class="cls-3" x="117.92" y="9.97" width="11.75" height="11.75"/><rect class="cls-3" x="96.8" y="9.7" width="11.75" height="11.75"/><rect class="cls-3" x="8.19" y="105.05" width="11.75" height="11.75"/><rect class="cls-3" x="29.32" y="104.79" width="11.75" height="11.75"/><rect class="cls-3" x="8.19" y="81.28" width="11.75" height="11.75"/><rect class="cls-3" x="29.32" y="81.02" width="11.75" height="11.75"/><rect class="cls-3" x="8.19" y="57.24" width="11.75" height="11.75"/><rect class="cls-3" x="29.32" y="56.98" width="11.75" height="11.75"/><rect class="cls-3" x="8.19" y="33.47" width="11.75" height="11.75"/><rect class="cls-3" x="29.32" y="33.21" width="11.75" height="11.75"/><rect class="cls-3" x="8.19" y="9.97" width="11.75" height="11.75"/><rect class="cls-3" x="29.32" y="9.7" width="11.75" height="11.75"/><rect class="cls-4" x="53.5" y="9.36" width="30.81" height="35.17"/><path class="cls-5" d="M65.28,12.17v4.08c1.42-1.41,5.16-1.5,6.69,0V12.17C70.51,13.61,66.76,13.63,65.28,12.17Z"/><path class="cls-5" d="M70.66,10.86H66.58c1.41,1.43,1.5,5.17,0,6.69h4.08C69.22,16.1,69.2,12.34,70.66,10.86Z"/><rect class="cls-6" x="66.47" y="20.68" width="4.87" height="6.71"/><path class="cls-6" d="M66.49,27.39h4.05V20.25H66.49a.41.41,0,0,0-.41.41V27A.4.4,0,0,0,66.49,27.39Z"/><rect class="cls-5" x="68.66" y="21.65" width="0.5" height="4.81"/><rect class="cls-5" x="66.84" y="23.56" width="4.14" height="0.5"/><rect class="cls-5" x="68.66" y="24.43" width="0.5" height="1.81" transform="translate(14.97 75.14) rotate(-62.91)"/><rect class="cls-5" x="68.01" y="22.31" width="1.8" height="0.5"/><path class="cls-7" d="M66.47,20.63c0,.08,0,.19.1.19h3.81v-.28H66.57A.09.09,0,0,0,66.47,20.63Z"/><path class="cls-7" d="M72.32,41.05H73a.48.48,0,0,0,.53-.22.55.55,0,0,0,0-.49l.21-4a1.4,1.4,0,0,0-2.8,0c0,1.1.09,2.2.14,3.31a1.21,1.21,0,0,0,.27,1A1.23,1.23,0,0,0,72.32,41.05Z"/><path class="cls-7" d="M69.79,40c0,.39-.1,1.07.48,1.07h2v-1.9h-1.7A.83.83,0,0,0,69.79,40Z"/><path class="cls-7" d="M71.91,38.68h.7c.66,1.44,1,.22,1.43-1.55.51-.81,1.08-3.4-1-4.55H71.43c-2.11,1.18-1.4,3.85-.88,4.61C70.78,38.45,71.21,39.61,71.91,38.68Z"/><path class="cls-8" d="M64.44,35.5c4.25,1.3,8.63.33,12.87.31,1.71.09,2.41-1.21,2.29-2.89V30.69a2.87,2.87,0,0,0-2.87-2.88H64.44a1.29,1.29,0,0,0-1.28,1.28v5.13A1.28,1.28,0,0,0,64.44,35.5Z"/><path class="cls-8" d="M64.29,41.05h.65a.48.48,0,0,0,.53-.22.55.55,0,0,0,0-.49l.21-4c-.14-1.85-2.45-1.82-2.8,0-.19,1.31,1.53,2.47.14,3.31a1.21,1.21,0,0,0,.27,1A1.23,1.23,0,0,0,64.29,41.05Z"/><path class="cls-8" d="M61.76,40c0,.39-.1,1.07.48,1.07h2.05v-1.9h-1.7A.83.83,0,0,0,61.76,40Z"/><path class="cls-7" d="M57.3,38c.2.33.49,1,1,.65l1.5-.95a.28.28,0,0,0,.08-.38L59,36l-1.43.91A.82.82,0,0,0,57.3,38Z"/><path class="cls-7" d="M58.1,37.25l.8.92c-.12.06-.15.08-.15.09.29.06,5.32-1.32,4.7-4.07-.47-.48-1.11-1.67-1.9-1A42.26,42.26,0,0,0,57.77,37,.39.39,0,0,0,58.1,37.25Z"/><path class="cls-7" d="M59.67,36l.38.59c.77,1.33,1.41.44,3.06-.42,1.16-.57,1.61-.47,2-1a2.12,2.12,0,0,0,.31-1.48l-.9-1.39A2.91,2.91,0,0,0,63,32a3.64,3.64,0,0,0-2.2,1.09C59.83,34,58.12,35.91,59.67,36Z"/><path class="cls-8" d="M63.88,38.68h.7c.66,1.44,1,.22,1.43-1.55.51-.81,1.08-3.4-1-4.55H63.4c-2,1.06-1.13,3.25-.49,4.74C63.35,38.9,63.71,40.14,63.88,38.68Z"/><path class="cls-8" d="M77.87,40.6l.64-.13a.48.48,0,0,0,.48-.31.54.54,0,0,0-.09-.49c-.18-1.31-.37-2.63-.55-4a1.4,1.4,0,0,0-1.64-1.1c-.82.16-1.09,1.54-1.11,1.64a3.9,3.9,0,0,0,1.25,3.16C76.35,40.39,77.08,40.7,77.87,40.6Z"/><path class="cls-8" d="M75.19,40c.08.39.1,1.06.68,1l2-.39-.36-1.87-1.67.33A.82.82,0,0,0,75.19,40Z"/><path class="cls-8" d="M77,38.35l.69-.13c.93,1.28,1.08,0,1.11-1.81.35-.88.41-3.54-1.8-4.27l-1.63.32c-1.84,1.56-.63,4,0,4.69C75.87,38.34,76.51,39.39,77,38.35Z"/><path class="cls-7" d="M56.51,31.51c.28,0,.7,0,.7-.36s0-.68-.35-.68-.7,0-.7.36S56.14,31.51,56.51,31.51Z"/><path class="cls-8" d="M59,33.19h2.47v-3c-.59-.39-3-.91-4.28,0C55.18,31,56.42,32.76,59,33.19Z"/><path class="cls-7" d="M60.27,28c.52-.18,1.5-.14,1.37-.72s-.22-1.18-.91-1.05c-.52.1-1.19.22-1.06.91C59.76,27.42,59.78,28.08,60.27,28Z"/><path class="cls-8" d="M59.77,33.19h3.51a3.24,3.24,0,1,0,0-6.48h-1.7a5.59,5.59,0,0,0-1.19.2,6,6,0,0,0-2.62,2.85c-.1.22.3.4.3.4C57.63,31.65,58.23,32.62,59.77,33.19Z"/><path class="cls-8" d="M63.27,36a3.2,3.2,0,1,0,.37-6.37c-2,0-5.6,2.82-3.66,3.35C62.89,33.8,61.45,36,63.27,36Z"/><path class="cls-7" d="M61.91,27.74c.57-.06,1.49.2,1.5-.39s.06-1.2-.65-1.23c-.52,0-1.21-.06-1.23.65C61.54,27.09,61.41,27.74,61.91,27.74Z"/><path class="cls-6" d="M70.54,20.25l.43.43A.3.3,0,0,1,70.54,20.25Z"/><path class="cls-4" d="M75.92,43.9a18.22,18.22,0,0,0-6.75,4.28,21.18,21.18,0,0,0-7.3-4.28"/><line class="cls-4" x1="69.16" y1="43.9" x2="74.93" y2="44.53"/></g></g></svg>