<svg xmlns="http://www.w3.org/2000/svg" viewBox="0 0 53.91 129.16"><defs><style>.cls-1{fill:#666;}.cls-2{fill:#892a81;}.cls-3{fill:#d2007f;}.cls-4{fill:#ea560d;}.cls-5{fill:#4d4d4d;}.cls-6{fill:#0096dc;}.cls-7{fill:#c5d300;}</style></defs><g id="Слой_2" data-name="Слой 2"><g id="Слой_1-2" data-name="Слой 1"><rect class="cls-1" x="22.83" y="99.44" width="9.52" height="9.52" rx="2.53"/><rect class="cls-1" x="10.41" y="99.44" width="9.52" height="9.52" rx="2.53"/><rect class="cls-1" x="22.83" y="66.47" width="9.52" height="9.52" rx="2.53"/><rect class="cls-1" x="35.24" y="66.47" width="9.52" height="9.52" rx="2.53"/><rect class="cls-1" x="10.41" y="66.47" width="9.52" height="9.52" rx="2.53"/><rect class="cls-1" x="22.83" y="33.49" width="9.52" height="9.52" rx="2.53"/><rect class="cls-1" x="35.24" y="33.49" width="9.52" height="9.52" rx="2.53"/><rect class="cls-1" x="10.41" y="33.49" width="9.52" height="9.52" rx="2.53"/><polygon class="cls-2" points="46.14 128.45 10.33 128.45 2.56 0 53.91 0 46.14 128.45"/><path class="cls-2" d="M0,2.36,2.56,0l.1,2.36"/><polygon class="cls-2" points="2.56 0 2.72 0 2.72 2.36 2.58 2.36 2.56 0"/><polygon class="cls-3" points="41.81 128.44 7.46 129.16 0 2.35 49.27 2.35 41.81 128.44"/><path class="cls-4" d="M32.29,128.43H17v-11a3.53,3.53,0,0,1,3.52-3.52h8.27a3.53,3.53,0,0,1,3.52,3.52Z"/><rect class="cls-5" x="15.87" y="96.61" width="21.84" height="9.52" rx="2.53"/><rect class="cls-5" x="12.81" y="96.61" width="6.9" height="9.52" rx="2.53"/><rect class="cls-5" x="12.51" y="62.87" width="28.1" height="9.52" rx="2.53"/><rect class="cls-5" x="9.83" y="62.87" width="8.53" height="9.52" rx="2.53"/><rect class="cls-5" x="32.29" y="30.91" width="9.52" height="9.52" rx="2.53"/><rect class="cls-6" x="30.8" y="95.13" width="6.9" height="9.52" rx="2.53"/><rect class="cls-5" x="7.46" y="30.91" width="30.78" height="9.52" rx="2.53"/><rect class="cls-6" x="12.81" y="95.13" width="22.44" height="9.52" rx="2.53"/><rect class="cls-6" x="32.08" y="61.39" width="8.53" height="9.52" rx="2.53"/><rect class="cls-6" x="9.83" y="61.39" width="27.12" height="9.52" rx="2.53"/><rect class="cls-7" x="14.63" y="80.39" width="20" height="6.55" rx="2.11"/><rect class="cls-6" x="12.22" y="29.43" width="29.59" height="9.52" rx="2.53"/><rect class="cls-6" x="7.46" y="29.43" width="9.52" height="9.52" rx="2.53"/><rect class="cls-7" x="9.63" y="15.27" width="30" height="6.55" rx="2.11"/><rect class="cls-7" x="12.13" y="47.7" width="25" height="6.55" rx="2.11"/></g></g></svg>