<svg xmlns="http://www.w3.org/2000/svg" viewBox="0 0 238.23 238.23"><defs><style>.cls-1{fill:#534741;}.cls-2{fill:#998675;}.cls-3{fill:none;stroke:#998675;stroke-miterlimit:10;stroke-width:5px;}.cls-4{fill:#736357;}</style></defs><g id="Слой_2" data-name="Слой 2"><g id="Слой_1-2" data-name="Слой 1"><rect class="cls-1" width="238.23" height="238.23" rx="28.86"/><path class="cls-2" d="M54.8,108.45h128a0,0,0,0,1,0,0v79.28a11.55,11.55,0,0,1-11.55,11.55H66.34A11.55,11.55,0,0,1,54.8,187.73V108.45A0,0,0,0,1,54.8,108.45Z"/><path class="cls-3" d="M104.43,43.44c-7.51-6.56-22.5-14.9-30-10.23-7.73,4.85-6.94,23.43,4.94,32s32.12,5.47,35.77-2.13C118.65,55.85,106.59,45.32,104.43,43.44Z"/><path class="cls-3" d="M133.2,43.44c7.52-6.56,22.5-14.9,30-10.23,7.74,4.85,6.94,23.43-4.94,32s-32.11,5.47-35.76-2.13C119,55.85,131,45.32,133.2,43.44Z"/><rect class="cls-2" x="47.23" y="67.32" width="143.17" height="37.21" rx="4.37"/><rect class="cls-4" x="73.4" y="146.62" width="90.83" height="14.49" transform="translate(272.68 35.05) rotate(90)"/><rect class="cls-4" x="54.8" y="131.27" width="128.04" height="14.49" transform="translate(237.63 277.04) rotate(180)"/></g></g></svg>