<svg xmlns="http://www.w3.org/2000/svg" xmlns:xlink="http://www.w3.org/1999/xlink" viewBox="0 0 1080 1217.42"><defs><style>.cls-1{fill:#e6e6e6;}.cls-2{font-size:116.7px;font-family:KozGoPr6N-Regular-90ms-RKSJ-H, Kozuka Gothic Pr6N;}.cls-2,.cls-3{fill:#333;}.cls-4{fill:#ffc400;}.cls-5{fill:#c60b1e;}</style></defs><g id="Слой_2" data-name="Слой 2"><g id="Слой_1-2" data-name="Слой 1"><rect class="cls-1" width="1080" height="1080" rx="87"/><text class="cls-2" transform="translate(405.29 1037.82) scale(0.95 1)">Hola!</text><rect class="cls-3" x="97.14" y="101.32" width="880" height="817.99" rx="75"/><rect class="cls-4" x="398.25" y="151.85" width="283.44" height="711.63" transform="translate(32.3 1047.63) rotate(-90)"/><path class="cls-5" d="M472.69-52.08h59.56a75,75,0,0,1,75,75V584.55a75,75,0,0,1-75,75H472.69a0,0,0,0,1,0,0V-52.08A0,0,0,0,1,472.69-52.08Z" transform="translate(236.23 843.7) rotate(-90)"/><path class="cls-5" d="M548.38,350.28h58.94a0,0,0,0,1,0,0v711.63a0,0,0,0,1,0,0H547.61a75,75,0,0,1-75-75V426.05A75.77,75.77,0,0,1,548.38,350.28Z" transform="translate(-166.13 1246.06) rotate(-90)"/><image width="500" height="500" transform="matrix(-1.23, 0, 0, 1.23, 846.71, 214.42)" xlink:href="C:%5CUsers%5CAdmin%5CDownloads%5Cpngtree-italy-leaning-tower-of-pisa-feature-decoration-png-image_482532-removebg-preview.png"/><polygon class="cls-3" points="376.05 773.45 664.23 773.45 664.23 813.26 445.79 819.09 365.8 802.86 376.05 773.45"/></g></g></svg>