<svg xmlns="http://www.w3.org/2000/svg" viewBox="0 0 790.43 449.73"><defs><style>.cls-1{fill:#5fae30;}.cls-2{fill:#29abe2;}.cls-3{fill:#666;}.cls-22,.cls-4{fill:#4d4d4d;}.cls-5{fill:#eb5d0b;}.cls-6{fill:#f4c200;}.cls-7{fill:#2db9dd;}.cls-8{fill:#ee8900;}.cls-9{fill:#c2240c;}.cls-10{fill:#00afbf;}.cls-11{fill:#fd0;}.cls-12{fill:#736357;}.cls-13{fill:#00a99d;}.cls-14{fill:#e6e6e6;}.cls-15{fill:#b3b3b3;}.cls-16{fill:#ccc;}.cls-17{fill:#f2f2f2;}.cls-18{fill:#d2007f;}.cls-19{fill:#ea560d;}.cls-20{fill:#0096dc;}.cls-21{fill:#c5d300;}.cls-22,.cls-28{font-size:20px;font-family:MicrosoftSansSerif, Microsoft Sans Serif;}.cls-23{fill:#a29fcf;}.cls-24,.cls-28{fill:#27234d;}.cls-25{fill:#586c7e;}.cls-26{fill:#39b54a;}.cls-27{fill:#009245;}</style></defs><g id="Слой_2" data-name="Слой 2"><g id="Слой_1-2" data-name="Слой 1"><path class="cls-1" d="M790.43,448.13c0-176.19-176.95-319-395.22-319S0,271.94,0,448.13c0,.27,0,.53,0,.8H790.42C790.42,448.66,790.43,448.4,790.43,448.13Z"/><path class="cls-2" d="M653.79,308.35c-28.66,26.19-88.86-36.63-142.82-13.61s-43.43,99.15-89.8,111.8C371.9,420,337.54,338.15,269.59,334.39c-37.45-2.07-88.78,19.35-153.64,115.34H222.43c13-17.47,33-37.86,61.35-44.86,47.84-11.79,90.55,21.59,128.08,44.86h85.27c16.81-29.84,9.58-82.88,48-103.66,43.17-23.31,89.41,26.83,130.46,4.52,16.81-9.14,34.13-31.27,38.7-87.52a349.82,349.82,0,0,0-38.74-37C654.76,242.14,675.13,288.85,653.79,308.35Z"/><rect class="cls-3" x="500.71" y="204.12" width="9.52" height="9.52" rx="2.53"/><rect class="cls-3" x="513.13" y="204.12" width="9.52" height="9.52" rx="2.53"/><rect class="cls-3" x="488.3" y="204.12" width="9.52" height="9.52" rx="2.53"/><rect class="cls-3" x="500.71" y="171.14" width="9.52" height="9.52" rx="2.53"/><rect class="cls-3" x="513.13" y="171.14" width="9.52" height="9.52" rx="2.53"/><rect class="cls-3" x="488.3" y="171.14" width="9.52" height="9.52" rx="2.53"/><rect class="cls-3" x="500.71" y="138.16" width="9.52" height="9.52" rx="2.53"/><rect class="cls-3" x="513.13" y="138.16" width="9.52" height="9.52" rx="2.53"/><rect class="cls-3" x="488.3" y="138.16" width="9.52" height="9.52" rx="2.53"/><rect class="cls-4" x="477.88" y="107.02" width="52.04" height="126.08" rx="3.34"/><path class="cls-5" d="M481.48,107h45.67a0,0,0,0,1,0,0V233.11a0,0,0,0,1,0,0H481.48a3.6,3.6,0,0,1-3.6-3.6V110.62A3.6,3.6,0,0,1,481.48,107Z"/><path class="cls-6" d="M498.39,218.57h8.26a3.52,3.52,0,0,1,3.52,3.52v11a0,0,0,0,1,0,0H494.86a0,0,0,0,1,0,0v-11A3.52,3.52,0,0,1,498.39,218.57Z"/><rect class="cls-7" x="497.76" y="200.06" width="9.52" height="9.52" rx="2.53"/><rect class="cls-7" x="510.17" y="200.06" width="9.52" height="9.52" rx="2.53"/><rect class="cls-7" x="485.34" y="200.06" width="9.52" height="9.52" rx="2.53"/><rect class="cls-7" x="497.76" y="167.08" width="9.52" height="9.52" rx="2.53"/><rect class="cls-7" x="510.17" y="167.08" width="9.52" height="9.52" rx="2.53"/><rect class="cls-7" x="485.34" y="167.08" width="9.52" height="9.52" rx="2.53"/><rect class="cls-8" x="477.88" y="185.06" width="49.27" height="6.55"/><rect class="cls-7" x="497.76" y="134.11" width="9.52" height="9.52" rx="2.53"/><rect class="cls-7" x="510.17" y="134.11" width="9.52" height="9.52" rx="2.53"/><rect class="cls-7" x="485.34" y="134.11" width="9.52" height="9.52" rx="2.53"/><rect class="cls-8" x="477.88" y="119.11" width="49.27" height="6.55"/><rect class="cls-8" x="477.88" y="152.08" width="49.27" height="6.55"/><rect class="cls-3" x="272.25" y="170.26" width="9.52" height="9.52" rx="2.53"/><rect class="cls-3" x="284.67" y="170.26" width="9.52" height="9.52" rx="2.53"/><rect class="cls-3" x="259.83" y="170.26" width="9.52" height="9.52" rx="2.53"/><rect class="cls-3" x="272.25" y="137.29" width="9.52" height="9.52" rx="2.53"/><rect class="cls-3" x="284.67" y="137.29" width="9.52" height="9.52" rx="2.53"/><rect class="cls-3" x="259.83" y="137.29" width="9.52" height="9.52" rx="2.53"/><rect class="cls-3" x="272.25" y="104.31" width="9.52" height="9.52" rx="2.53"/><rect class="cls-3" x="284.67" y="104.31" width="9.52" height="9.52" rx="2.53"/><rect class="cls-3" x="259.83" y="104.31" width="9.52" height="9.52" rx="2.53"/><rect class="cls-4" x="249.42" y="73.17" width="52.04" height="126.08" rx="3.34"/><path class="cls-1" d="M253,73.17h45.67a0,0,0,0,1,0,0V199.26a0,0,0,0,1,0,0H253a3.6,3.6,0,0,1-3.6-3.6V76.77A3.6,3.6,0,0,1,253,73.17Z"/><path class="cls-9" d="M269.92,184.72h8.26a3.52,3.52,0,0,1,3.52,3.52v11a0,0,0,0,1,0,0H266.4a0,0,0,0,1,0,0v-11A3.52,3.52,0,0,1,269.92,184.72Z"/><rect class="cls-10" x="269.29" y="166.21" width="9.52" height="9.52" rx="2.53"/><rect class="cls-10" x="281.71" y="166.21" width="9.52" height="9.52" rx="2.53"/><rect class="cls-10" x="256.88" y="166.21" width="9.52" height="9.52" rx="2.53"/><rect class="cls-10" x="269.29" y="133.23" width="9.52" height="9.52" rx="2.53"/><rect class="cls-10" x="281.71" y="133.23" width="9.52" height="9.52" rx="2.53"/><rect class="cls-10" x="256.88" y="133.23" width="9.52" height="9.52" rx="2.53"/><rect class="cls-11" x="249.42" y="151.21" width="49.27" height="6.55"/><rect class="cls-10" x="269.29" y="100.26" width="9.52" height="9.52" rx="2.53"/><rect class="cls-10" x="281.71" y="100.26" width="9.52" height="9.52" rx="2.53"/><rect class="cls-10" x="256.88" y="100.26" width="9.52" height="9.52" rx="2.53"/><rect class="cls-11" x="249.42" y="85.26" width="49.27" height="6.55"/><rect class="cls-11" x="249.42" y="118.23" width="49.27" height="6.55"/><rect class="cls-4" x="370.94" y="56.33" width="43.61" height="55.78" transform="translate(476.97 -308.52) rotate(90)"/><rect class="cls-4" x="412.44" y="58.84" width="49.27" height="121.61" rx="7.09"/><rect class="cls-4" x="323.84" y="58.84" width="49.27" height="121.61" rx="7.09" transform="translate(696.95 239.28) rotate(-180)"/><rect class="cls-12" x="368.01" y="56.55" width="43.61" height="55.78" transform="translate(474.26 -305.37) rotate(90)"/><rect class="cls-12" x="409.51" y="59.06" width="49.27" height="121.61" rx="7.09"/><rect class="cls-12" x="320.91" y="59.06" width="49.27" height="121.61" rx="7.09" transform="translate(691.09 239.72) rotate(-180)"/><rect class="cls-4" x="438.79" y="163.61" width="11.75" height="11.75"/><rect class="cls-4" x="417.66" y="163.35" width="11.75" height="11.75"/><rect class="cls-4" x="438.79" y="139.84" width="11.75" height="11.75"/><rect class="cls-4" x="417.66" y="139.58" width="11.75" height="11.75"/><rect class="cls-4" x="438.79" y="115.8" width="11.75" height="11.75"/><rect class="cls-4" x="417.66" y="115.54" width="11.75" height="11.75"/><rect class="cls-4" x="438.79" y="92.03" width="11.75" height="11.75"/><rect class="cls-4" x="417.66" y="91.77" width="11.75" height="11.75"/><rect class="cls-4" x="438.79" y="68.53" width="11.75" height="11.75"/><rect class="cls-4" x="417.66" y="68.26" width="11.75" height="11.75"/><rect class="cls-4" x="329.06" y="163.61" width="11.75" height="11.75" transform="translate(669.87 338.98) rotate(-180)"/><rect class="cls-4" x="350.19" y="163.35" width="11.75" height="11.75" transform="translate(712.13 338.45) rotate(-180)"/><rect class="cls-4" x="329.06" y="139.84" width="11.75" height="11.75" transform="translate(669.87 291.44) rotate(-180)"/><rect class="cls-4" x="350.19" y="139.58" width="11.75" height="11.75" transform="translate(712.13 290.9) rotate(-180)"/><rect class="cls-4" x="329.06" y="115.8" width="11.75" height="11.75" transform="translate(669.87 243.36) rotate(-180)"/><rect class="cls-4" x="350.19" y="115.54" width="11.75" height="11.75" transform="translate(712.13 242.83) rotate(-180)"/><rect class="cls-4" x="329.06" y="92.03" width="11.75" height="11.75" transform="translate(669.87 195.82) rotate(-180)"/><rect class="cls-4" x="350.19" y="91.77" width="11.75" height="11.75" transform="translate(712.13 195.28) rotate(-180)"/><rect class="cls-4" x="329.06" y="68.53" width="11.75" height="11.75" transform="translate(669.87 148.81) rotate(-180)"/><rect class="cls-4" x="350.19" y="68.26" width="11.75" height="11.75" transform="translate(712.13 148.27) rotate(-180)"/><rect class="cls-13" x="438.83" y="161.66" width="11.75" height="11.75"/><rect class="cls-13" x="417.71" y="161.4" width="11.75" height="11.75"/><rect class="cls-13" x="438.83" y="137.89" width="11.75" height="11.75"/><rect class="cls-13" x="417.71" y="137.62" width="11.75" height="11.75"/><rect class="cls-13" x="438.83" y="113.85" width="11.75" height="11.75"/><rect class="cls-13" x="417.71" y="113.59" width="11.75" height="11.75"/><rect class="cls-13" x="438.83" y="90.08" width="11.75" height="11.75"/><rect class="cls-13" x="417.71" y="89.81" width="11.75" height="11.75"/><rect class="cls-13" x="438.83" y="66.58" width="11.75" height="11.75"/><rect class="cls-13" x="417.71" y="66.31" width="11.75" height="11.75"/><rect class="cls-13" x="329.1" y="161.66" width="11.75" height="11.75" transform="translate(669.96 335.08) rotate(-180)"/><rect class="cls-13" x="350.23" y="161.4" width="11.75" height="11.75" transform="translate(712.21 334.54) rotate(-180)"/><rect class="cls-13" x="329.1" y="137.89" width="11.75" height="11.75" transform="translate(669.96 287.53) rotate(-180)"/><rect class="cls-13" x="350.23" y="137.62" width="11.75" height="11.75" transform="translate(712.21 287) rotate(-180)"/><rect class="cls-13" x="329.1" y="113.85" width="11.75" height="11.75" transform="translate(669.96 239.46) rotate(-180)"/><rect class="cls-13" x="350.23" y="113.59" width="11.75" height="11.75" transform="translate(712.21 238.92) rotate(-180)"/><rect class="cls-13" x="329.1" y="90.08" width="11.75" height="11.75" transform="translate(669.96 191.91) rotate(-180)"/><rect class="cls-13" x="350.23" y="89.81" width="11.75" height="11.75" transform="translate(712.21 191.38) rotate(-180)"/><rect class="cls-13" x="329.1" y="66.58" width="11.75" height="11.75" transform="translate(669.96 144.9) rotate(-180)"/><rect class="cls-13" x="350.23" y="66.31" width="11.75" height="11.75" transform="translate(712.21 144.37) rotate(-180)"/><rect class="cls-9" x="374.41" y="65.4" width="30.81" height="35.17"/><path class="cls-14" d="M386.19,68.21v4.08a5,5,0,0,1,3.44-1.11,5,5,0,0,1,3.25,1.11V68.21a5,5,0,0,1-3.38,1.12A5,5,0,0,1,386.19,68.21Z"/><path class="cls-14" d="M391.57,66.91h-4.08a5,5,0,0,1,1.12,3.44,4.91,4.91,0,0,1-1.12,3.25h4.08a5.59,5.59,0,0,1,0-6.69Z"/><rect class="cls-15" x="387.38" y="76.72" width="4.87" height="6.71" transform="translate(779.62 160.16) rotate(180)"/><path class="cls-15" d="M387.4,83.43h4.05V76.3H387.4a.4.4,0,0,0-.41.4V83A.4.4,0,0,0,387.4,83.43Z"/><rect class="cls-14" x="389.57" y="77.69" width="0.5" height="4.81" transform="translate(779.63 160.2) rotate(180)"/><rect class="cls-14" x="389.57" y="77.78" width="0.5" height="4.14" transform="translate(309.96 469.67) rotate(-90)"/><rect class="cls-14" x="389.57" y="80.47" width="0.5" height="1.81" transform="translate(139.83 391.35) rotate(-62.91)"/><rect class="cls-14" x="389.57" y="77.71" width="0.5" height="1.8" transform="translate(311.21 468.42) rotate(-90)"/><path class="cls-16" d="M387.38,76.68v.09a.09.09,0,0,0,.09.09h3.82v-.28h-3.82A.09.09,0,0,0,387.38,76.68Z"/><path class="cls-16" d="M393.23,97.1h.65a.52.52,0,0,0,.53-.22.55.55,0,0,0,0-.49c.07-1.33.13-2.66.2-4a1.4,1.4,0,0,0-2.79,0c.05,1.1.09,2.21.14,3.31a1.19,1.19,0,0,0,.27,1A1.27,1.27,0,0,0,393.23,97.1Z"/><path class="cls-16" d="M391.5,94.88h.59a.83.83,0,0,1,.83.83v1.7a0,0,0,0,1,0,0H391a0,0,0,0,1,0,0v-2a.48.48,0,0,1,.48-.48Z" transform="matrix(0, -1, 1, 0, 295.82, 488.11)"/><path class="cls-16" d="M392.81,94.73h.71c.18.42.35.63.52.62s.62-.73.91-2.18a3.8,3.8,0,0,0,.11-3.47A3,3,0,0,0,394,88.63h-1.66a2.92,2.92,0,0,0-1.07,1.07,3.81,3.81,0,0,0,.19,3.54c.18,1.08.52,1.81.89,1.82C392.44,95.07,392.6,95,392.81,94.73Z"/><path class="cls-17" d="M385.35,91.55a18.93,18.93,0,0,0,2,.46l.71.11a20,20,0,0,0,3.25.08c1.44-.09,2.9-.17,4.37-.24l2.49-.1a2.29,2.29,0,0,0,1.72-.62,2.21,2.21,0,0,0,.2-.3,3.09,3.09,0,0,0,.34-1,3.35,3.35,0,0,0,0-.93V86.73a2.87,2.87,0,0,0-2.87-2.87H385.35a1.28,1.28,0,0,0-1.28,1.28v5.13A1.29,1.29,0,0,0,385.35,91.55Z"/><path class="cls-17" d="M385.2,97.1h.65a.52.52,0,0,0,.53-.22.55.55,0,0,0,0-.49l.21-4A1.4,1.4,0,0,0,385.2,91a1.68,1.68,0,0,0-1.4,1.39c-.2,1.13,1,1.92.61,2.79a1.1,1.1,0,0,1-.47.52,1.23,1.23,0,0,0,.27,1A1.27,1.27,0,0,0,385.2,97.1Z"/><path class="cls-17" d="M383.47,94.88h.59a.83.83,0,0,1,.83.83v1.7a0,0,0,0,1,0,0H383a0,0,0,0,1,0,0v-2a.48.48,0,0,1,.48-.48Z" transform="translate(287.79 480.08) rotate(-90)"/><path class="cls-16" d="M378.87,92.22h.59a.83.83,0,0,1,.83.83v1.7a0,0,0,0,1,0,0h-1.63a.27.27,0,0,1-.27-.27V92.7a.48.48,0,0,1,.48-.48Z" transform="translate(503.96 463.76) rotate(-122.44)"/><path class="cls-16" d="M379,93.3l.8.92-.15.08s4-.8,4.63-3a2.4,2.4,0,0,0,.07-1.1l-.8-.92a.79.79,0,0,0-1.11-.08A45.26,45.26,0,0,0,378.67,93,.45.45,0,0,0,379,93.3Z"/><path class="cls-16" d="M380.57,92.08l.39.58a1.19,1.19,0,0,0,.72.66c.63.16,1-.43,2.34-1.08,1.16-.57,1.61-.47,2-1a2.09,2.09,0,0,0,.31-1.47l-.9-1.4A3,3,0,0,0,384,88a3.64,3.64,0,0,0-2.2,1.09c-.95.8-2.08,2.2-1.73,2.73A.69.69,0,0,0,380.57,92.08Z"/><path class="cls-17" d="M384.79,94.73h.7c.18.42.35.63.53.62s.61-.73.9-2.18A3.8,3.8,0,0,0,387,89.7,3,3,0,0,0,386,88.63h-1.66a2.3,2.3,0,0,0-1.07,1.07,3.32,3.32,0,0,0,.06,2.3,6.49,6.49,0,0,0,.52,1.37c.35,1.34.61,2,.78,2S384.75,95.13,384.79,94.73Z"/><path class="cls-17" d="M398.78,96.64l.64-.12a.51.51,0,0,0,.48-.32.53.53,0,0,0-.09-.48c-.18-1.32-.37-2.64-.55-4a1.41,1.41,0,0,0-1.64-1.11c-.82.16-1.09,1.54-1.11,1.64a3.88,3.88,0,0,0,1.25,3.16.87.87,0,0,0,0,1,1.06,1.06,0,0,0,.71.22A1.64,1.64,0,0,0,398.78,96.64Z"/><path class="cls-17" d="M396.89,94.69h.59a.83.83,0,0,1,.83.83v1.7a0,0,0,0,1,0,0h-1.9a0,0,0,0,1,0,0v-2A.48.48,0,0,1,396.89,94.69Z" transform="translate(379.27 504.33) rotate(-101.04)"/><path class="cls-17" d="M397.92,94.4l.69-.14c.26.38.47.55.64.52s.46-.84.47-2.32a3.8,3.8,0,0,0-.55-3.43,3.07,3.07,0,0,0-1.26-.85l-1.62.32a3.06,3.06,0,0,0-.85,1.25,3.83,3.83,0,0,0,.87,3.44c.38,1,.86,1.68,1.22,1.62C397.62,94.8,397.77,94.73,397.92,94.4Z"/><rect class="cls-16" x="377.06" y="86.51" width="1.06" height="1.04" rx="0.36" transform="translate(755.19 174.06) rotate(-180)"/><path class="cls-17" d="M379.86,89.23h2.47v-3a4.9,4.9,0,0,0-3.53-.33,3.69,3.69,0,0,0-.75.33c-.2.09-.89.43-1,1C377,87.93,378,88.92,379.86,89.23Z"/><path class="cls-16" d="M381,82.29h1.11a.39.39,0,0,1,.39.39v.58a.65.65,0,0,1-.65.65h-.59a.65.65,0,0,1-.65-.65v-.58a.39.39,0,0,1,.39-.39Z" transform="translate(771.97 77.03) rotate(166.82)"/><path class="cls-17" d="M380.68,89.23h3.51a3.17,3.17,0,0,0,3.26-3.07v-.33a3.17,3.17,0,0,0-3.26-3.07h-1.7a5.9,5.9,0,0,0-.77.09l-.42.1a5.78,5.78,0,0,0-2.63,2.85c-.09.22.3.41.3.41a3.33,3.33,0,0,0-.1,1.32A2.57,2.57,0,0,0,380.68,89.23Z"/><path class="cls-17" d="M384.18,92.06h.37a3.16,3.16,0,0,0,3.29-3v-.34a3.16,3.16,0,0,0-3.29-3c-2,0-5.6,2.81-3.66,3.35C383.8,89.85,382.36,92.06,384.18,92.06Z"/><path class="cls-16" d="M382.82,82.16h1.11a.39.39,0,0,1,.39.39v.58a.65.65,0,0,1-.65.65h-.59a.65.65,0,0,1-.65-.65v-.58A.39.39,0,0,1,382.82,82.16Z" transform="translate(766.75 165.94) rotate(-180)"/><path class="cls-15" d="M391.45,76.3l.43.42a.3.3,0,0,1-.43,0A.3.3,0,0,1,391.45,76.3Z"/><path class="cls-9" d="M396.83,99.94a17.81,17.81,0,0,0-4,2,17.33,17.33,0,0,0-2.73,2.27,20.16,20.16,0,0,0-7.3-4.28"/><line class="cls-9" x1="390.07" y1="99.94" x2="395.84" y2="100.57"/><rect class="cls-3" x="182.06" y="223.21" width="9.52" height="9.52" rx="2.53"/><rect class="cls-3" x="194.48" y="223.21" width="9.52" height="9.52" rx="2.53"/><rect class="cls-3" x="169.65" y="223.21" width="9.52" height="9.52" rx="2.53"/><rect class="cls-3" x="182.06" y="190.23" width="9.52" height="9.52" rx="2.53"/><rect class="cls-3" x="194.48" y="190.23" width="9.52" height="9.52" rx="2.53"/><rect class="cls-3" x="169.65" y="190.23" width="9.52" height="9.52" rx="2.53"/><rect class="cls-3" x="182.06" y="157.26" width="9.52" height="9.52" rx="2.53"/><rect class="cls-3" x="194.48" y="157.26" width="9.52" height="9.52" rx="2.53"/><rect class="cls-3" x="169.65" y="157.26" width="9.52" height="9.52" rx="2.53"/><rect class="cls-4" x="194.05" y="126.11" width="17.23" height="126.08" rx="3.34"/><path class="cls-18" d="M162.83,126.11H208.5a0,0,0,0,1,0,0V252.2a0,0,0,0,1,0,0H162.83a3.6,3.6,0,0,1-3.6-3.6V129.72A3.6,3.6,0,0,1,162.83,126.11Z"/><path class="cls-19" d="M179.73,237.66H188a3.52,3.52,0,0,1,3.52,3.52v11a0,0,0,0,1,0,0H176.21a0,0,0,0,1,0,0v-11A3.52,3.52,0,0,1,179.73,237.66Z"/><rect class="cls-20" x="179.1" y="219.15" width="9.52" height="9.52" rx="2.53"/><rect class="cls-20" x="191.52" y="219.15" width="9.52" height="9.52" rx="2.53"/><rect class="cls-20" x="166.69" y="219.15" width="9.52" height="9.52" rx="2.53"/><rect class="cls-20" x="179.1" y="186.17" width="9.52" height="9.52" rx="2.53"/><rect class="cls-20" x="191.52" y="186.17" width="9.52" height="9.52" rx="2.53"/><rect class="cls-20" x="166.69" y="186.17" width="9.52" height="9.52" rx="2.53"/><rect class="cls-21" x="159.23" y="204.15" width="49.27" height="6.55"/><rect class="cls-20" x="179.1" y="153.2" width="9.52" height="9.52" rx="2.53"/><rect class="cls-20" x="191.52" y="153.2" width="9.52" height="9.52" rx="2.53"/><rect class="cls-20" x="166.69" y="153.2" width="9.52" height="9.52" rx="2.53"/><rect class="cls-21" x="159.23" y="138.2" width="49.27" height="6.55"/><rect class="cls-21" x="159.23" y="171.17" width="49.27" height="6.55"/><ellipse class="cls-4" cx="621.89" cy="40.74" rx="49.28" ry="40.74"/><polygon class="cls-4" points="623.17 40.74 620.55 40.74 619.39 0 624.39 0 623.17 40.74"/><polygon class="cls-4" points="625.06 39.83 622.79 38.2 638.2 2.2 643.19 3.99 625.06 39.83"/><polygon class="cls-4" points="624.39 41.13 623.08 38.32 657.19 12.21 661.43 16.43 624.39 41.13"/><polygon class="cls-4" points="618.54 39.83 620.81 38.2 605.4 2.2 600.41 3.99 618.54 39.83"/><polygon class="cls-4" points="619.2 41.13 620.51 38.32 586.4 12.21 582.16 16.43 619.2 41.13"/><ellipse class="cls-4" cx="621.89" cy="40.74" rx="15.65" ry="10.43"/><path class="cls-4" d="M664.34,139.3l6.51-98.56H621.57V240.21H649.8l6-100.91Z"/><polygon class="cls-4" points="585.79 240.21 621.89 240.21 621.89 126.98 578.31 126.98 585.79 240.21"/><polygon class="cls-4" points="621.89 40.74 572.61 40.74 576.68 102.34 621.89 102.34 621.89 40.74"/><polygon class="cls-4" points="702.34 139.3 663.45 139.3 666.79 90.02 713.35 90.02 702.34 139.3"/><polygon class="cls-4" points="603.79 240.21 606.41 240.21 605.12 126.78 601.15 126.78 603.79 240.21"/><polygon class="cls-4" points="604.15 40.74 599.15 40.74 600.58 102 604.84 102 604.15 40.74"/><polygon class="cls-4" points="624.02 240.21 621.4 240.21 620.24 41.13 625.24 41.13 624.02 240.21"/><polygon class="cls-4" points="642.12 240.21 639.45 240.21 641.77 40.75 646.78 40.75 642.12 240.21"/><polygon class="cls-4" points="662.43 139.3 659.81 139.3 662.1 40.75 667.09 40.75 662.43 139.3"/><polygon class="cls-4" points="686.25 139.3 683.64 139.3 685.06 90.02 690.06 90.02 686.25 139.3"/><polygon class="cls-4" points="586.82 240.21 589.45 240.21 586.18 126.78 582.2 126.78 586.82 240.21"/><polygon class="cls-4" points="583.7 40.74 578.7 40.74 581.19 102.01 585.46 102.01 583.7 40.74"/><polygon class="cls-4" points="585.43 126.78 585.43 126.78 581.03 102 589.83 102 585.43 126.78"/><polygon class="cls-4" points="670.54 50.3 573.24 50.3 572.62 40.75 671.17 40.74 670.54 50.3"/><polygon class="cls-4" points="667.47 71.19 576.23 71.19 575.05 51.24 668.74 51.21 667.47 71.19"/><polygon class="cls-4" points="711.27 99.57 667.09 99.57 667.91 90.02 713.35 90.02 711.27 99.57"/><polygon class="cls-4" points="659.48 67.47 575.86 71.23 574.68 51.27 668.37 51.25 659.48 67.47"/><text class="cls-22" transform="translate(580.94 67.47) scale(0.4 1)">Doofenshmirtz Evil Inc .</text><text/><ellipse class="cls-23" cx="618.66" cy="40.76" rx="49.28" ry="40.74"/><polygon class="cls-24" points="619.94 40.76 617.32 40.76 616.16 0.02 621.16 0.02 619.94 40.76"/><polygon class="cls-24" points="621.83 39.85 619.56 38.22 634.97 2.22 639.96 4.01 621.83 39.85"/><polygon class="cls-24" points="621.16 41.15 619.85 38.34 653.96 12.24 658.2 16.45 621.16 41.15"/><polygon class="cls-24" points="615.31 39.85 617.57 38.22 602.16 2.22 597.17 4.01 615.31 39.85"/><polygon class="cls-24" points="615.97 41.15 617.28 38.34 583.17 12.24 578.93 16.45 615.97 41.15"/><ellipse class="cls-24" cx="618.66" cy="40.76" rx="15.65" ry="10.43"/><path class="cls-25" d="M661.11,139.32l6.51-98.56H618.34V240.23h28.23l6-100.91Z"/><polygon class="cls-25" points="582.56 240.23 618.66 240.23 618.66 127 575.08 127 582.56 240.23"/><polygon class="cls-25" points="618.66 40.76 569.38 40.76 573.45 102.36 618.66 102.36 618.66 40.76"/><polygon class="cls-25" points="699.11 139.32 660.22 139.32 663.56 90.04 710.12 90.04 699.11 139.32"/><polygon class="cls-23" points="600.56 240.23 603.18 240.23 601.89 126.8 597.92 126.8 600.56 240.23"/><polygon class="cls-23" points="600.91 40.76 595.92 40.76 597.34 102.02 601.61 102.02 600.91 40.76"/><polygon class="cls-23" points="620.79 240.23 618.17 240.23 617.01 41.15 622.01 41.15 620.79 240.23"/><polygon class="cls-23" points="638.88 240.23 636.22 240.23 638.54 40.77 643.55 40.77 638.88 240.23"/><polygon class="cls-23" points="659.2 139.32 656.58 139.32 658.87 40.78 663.86 40.78 659.2 139.32"/><polygon class="cls-23" points="683.02 139.32 680.4 139.32 681.83 90.04 686.82 90.04 683.02 139.32"/><polygon class="cls-23" points="583.59 240.23 586.21 240.23 582.95 126.8 578.97 126.8 583.59 240.23"/><polygon class="cls-23" points="580.47 40.76 575.47 40.76 577.96 102.03 582.23 102.03 580.47 40.76"/><polygon class="cls-24" points="582.2 126.8 582.2 126.8 577.8 102.02 586.6 102.02 582.2 126.8"/><polygon class="cls-24" points="667.3 50.32 570.01 50.32 569.39 40.78 667.94 40.76 667.3 50.32"/><polygon class="cls-26" points="664.23 71.22 573 71.22 571.82 51.26 665.51 51.23 664.23 71.22"/><polygon class="cls-24" points="708.04 99.59 663.86 99.59 664.68 90.04 710.12 90.04 708.04 99.59"/><polygon class="cls-27" points="656.25 67.5 572.62 71.25 571.44 51.3 665.13 51.27 656.25 67.5"/><text class="cls-28" transform="translate(577.71 67.5) scale(0.4 1)">Doofenshmirtz Evil Inc .</text><text/></g></g></svg>