<svg xmlns="http://www.w3.org/2000/svg" viewBox="0 0 163 163"><defs><style>.cls-1{fill:#fcee21;}.cls-2{fill:none;stroke:#fcee21;stroke-width:3px;}.cls-2,.cls-3{stroke-miterlimit:10;}.cls-3{fill:#fcd200;stroke:#d4b900;stroke-width:0.25px;}.cls-4{fill:#666;}.cls-5{fill:#ccc;}.cls-6{fill:#e6e6e6;}.cls-7{fill:#d4b900;}.cls-8{font-size:24px;fill:#e30613;font-family:a_AlternaSw;letter-spacing:0.05em;}</style></defs><g id="Слой_2" data-name="Слой 2"><g id="Слой_1-2" data-name="Слой 1"><circle class="cls-1" cx="81.5" cy="81.5" r="80"/><circle class="cls-2" cx="81.5" cy="81.5" r="80"/><circle class="cls-3" cx="81.5" cy="81.5" r="75"/><path class="cls-4" d="M139.17,92.05,57.45,112A32,32,0,0,1,18.79,88.52h0A3,3,0,0,1,21,85L26.9,83.5,127,59.06A16.88,16.88,0,0,1,139.5,61,16.43,16.43,0,0,1,147,71.17l1.4,5.76A12.5,12.5,0,0,1,139.17,92.05Z"/><path class="cls-4" d="M116.82,58.74h14.89a14,14,0,0,1,14,14v4.59a0,0,0,0,1,0,0H123.87a10.7,10.7,0,0,1-10.7-10.7V62.4a3.66,3.66,0,0,1,3.66-3.66Z" transform="translate(-12.44 32.64) rotate(-13.72)"/><rect class="cls-4" x="70.47" y="75.43" width="12.97" height="12.97" rx="6.48" transform="translate(-17.23 20.59) rotate(-13.72)"/><rect class="cls-4" x="52.41" y="79.84" width="12.97" height="12.97" rx="6.48" transform="translate(-18.79 16.43) rotate(-13.72)"/><rect class="cls-4" x="88.61" y="71.12" width="12.97" height="12.97" rx="6.48" transform="translate(-15.69 24.77) rotate(-13.72)"/><ellipse class="cls-4" cx="88.48" cy="97.18" rx="22.55" ry="6.64" transform="translate(-26.13 32.87) rotate(-18.38)"/><path class="cls-4" d="M26.69,86.43l-3.8-15.56a2,2,0,0,1,1.44-2.37l3.7-.9a2.85,2.85,0,0,1,2.83.91L42,81.48l.28,1.14"/><path class="cls-5" d="M137,88.06,55.24,108A32,32,0,0,1,16.58,84.52h0A2.94,2.94,0,0,1,18.74,81l5.94-1.45L124.81,55.06A16.82,16.82,0,0,1,137.28,57a16.43,16.43,0,0,1,7.46,10.18l1.41,5.76A12.52,12.52,0,0,1,137,88.06Z"/><path class="cls-6" d="M114.61,54.74h14.89a14,14,0,0,1,14,14v4.59a0,0,0,0,1,0,0H121.65A10.7,10.7,0,0,1,111,62.64V58.4A3.66,3.66,0,0,1,114.61,54.74Z" transform="translate(-11.56 32) rotate(-13.72)"/><rect class="cls-6" x="68.26" y="71.44" width="12.97" height="12.97" rx="6.48" transform="translate(-16.35 19.95) rotate(-13.72)"/><rect class="cls-6" x="50.2" y="75.85" width="12.97" height="12.97" rx="6.48" transform="translate(-17.91 15.79) rotate(-13.72)"/><rect class="cls-6" x="86.39" y="67.12" width="12.97" height="12.97" rx="6.48" transform="translate(-14.81 24.13) rotate(-13.72)"/><ellipse class="cls-6" cx="86.27" cy="93.18" rx="22.55" ry="6.64" transform="translate(-24.98 31.96) rotate(-18.38)"/><path class="cls-5" d="M24.47,82.44l-3.8-15.56a2,2,0,0,1,1.44-2.37l3.7-.9a2.81,2.81,0,0,1,2.83.91l11.15,13,.28,1.14"/><path class="cls-7" d="M11.32,86.14A75,75,0,0,1,136.72,30.6,75,75,0,1,0,31.1,136.88,74.72,74.72,0,0,1,11.32,86.14Z"/><text class="cls-8" transform="translate(65.58 137.81) scale(0.81 1)">100</text></g></g></svg>