<svg xmlns="http://www.w3.org/2000/svg" viewBox="0 0 150.25 150.28"><defs><style>.cls-1{fill:#fcd200;stroke:#d4b900;stroke-miterlimit:10;stroke-width:0.25px;}.cls-2{fill:#666;}.cls-3{fill:#ccc;}.cls-4{fill:#e6e6e6;}.cls-5{fill:#d4b900;}.cls-6{font-size:24px;fill:#e30613;font-family:a_AlternaSw;letter-spacing:0.05em;}</style></defs><g id="Слой_2" data-name="Слой 2"><g id="Слой_1-2" data-name="Слой 1"><circle class="cls-1" cx="75.13" cy="75.16" r="75"/><path class="cls-2" d="M132.8,85.71l-81.72,20A32,32,0,0,1,12.42,82.17h0a2.94,2.94,0,0,1,2.16-3.56l5.94-1.45L120.65,52.71a16.82,16.82,0,0,1,12.47,1.93,16.43,16.43,0,0,1,7.46,10.18L142,70.58A12.52,12.52,0,0,1,132.8,85.71Z"/><path class="cls-2" d="M110.45,52.4h14.89a14,14,0,0,1,14,14V71a0,0,0,0,1,0,0H117.49a10.7,10.7,0,0,1-10.7-10.7V56.05A3.66,3.66,0,0,1,110.45,52.4Z" transform="translate(-11.12 30.95) rotate(-13.72)"/><rect class="cls-2" x="64.1" y="69.09" width="12.97" height="12.97" rx="6.48" transform="translate(-15.91 18.9) rotate(-13.72)"/><rect class="cls-2" x="46.04" y="73.5" width="12.97" height="12.97" rx="6.48" transform="translate(-17.47 14.74) rotate(-13.72)"/><rect class="cls-2" x="82.23" y="64.77" width="12.97" height="12.97" rx="6.48" transform="translate(-14.37 23.07) rotate(-13.72)"/><ellipse class="cls-2" cx="82.11" cy="90.83" rx="22.55" ry="6.64" transform="translate(-24.46 30.53) rotate(-18.38)"/><path class="cls-2" d="M20.31,80.09l-3.8-15.56A2,2,0,0,1,18,62.16l3.7-.9a2.85,2.85,0,0,1,2.83.91l11.15,13,.28,1.14"/><path class="cls-3" d="M130.58,81.72l-81.72,20A32,32,0,0,1,10.2,78.18h0a3,3,0,0,1,2.17-3.57l5.94-1.45L118.43,48.72a16.85,16.85,0,0,1,12.48,1.93,16.43,16.43,0,0,1,7.46,10.18l1.4,5.76A12.51,12.51,0,0,1,130.58,81.72Z"/><path class="cls-4" d="M108.23,48.4h14.89a14,14,0,0,1,14,14V67a0,0,0,0,1,0,0H115.28a10.7,10.7,0,0,1-10.7-10.7V52.06A3.66,3.66,0,0,1,108.23,48.4Z" transform="translate(-10.24 30.31) rotate(-13.72)"/><rect class="cls-4" x="61.88" y="65.09" width="12.97" height="12.97" rx="6.48" transform="translate(-15.03 18.26) rotate(-13.72)"/><rect class="cls-4" x="43.82" y="69.5" width="12.97" height="12.97" rx="6.48" transform="translate(-16.59 14.1) rotate(-13.72)"/><rect class="cls-4" x="80.02" y="60.78" width="12.97" height="12.97" rx="6.48" transform="translate(-13.48 22.43) rotate(-13.72)"/><ellipse class="cls-4" cx="79.89" cy="86.84" rx="22.55" ry="6.64" transform="translate(-23.31 29.63) rotate(-18.38)"/><path class="cls-3" d="M18.1,76.1,14.3,60.54a2,2,0,0,1,1.44-2.37l3.7-.91a2.85,2.85,0,0,1,2.83.91l11.15,13,.28,1.15"/><path class="cls-5" d="M4.94,79.8A75,75,0,0,1,130.35,24.26,75,75,0,1,0,24.72,130.54,74.72,74.72,0,0,1,4.94,79.8Z"/><text class="cls-6" transform="translate(57.49 131.81) scale(0.81 1)">5000</text></g></g></svg>