<svg xmlns="http://www.w3.org/2000/svg" viewBox="0 0 163 163"><defs><style>.cls-1{fill:#fcee21;}.cls-2{fill:none;stroke:#fcee21;stroke-width:3px;}.cls-2,.cls-3{stroke-miterlimit:10;}.cls-3{fill:#fcd200;stroke:#d4b900;stroke-width:0.25px;}.cls-4{fill:#666;}.cls-5{fill:#ccc;}.cls-6{fill:#e6e6e6;}.cls-7{fill:#d4b900;}.cls-8{font-size:24px;fill:#e30613;font-family:a_AlternaSw;letter-spacing:0.05em;}</style></defs><g id="Слой_2" data-name="Слой 2"><g id="Слой_1-2" data-name="Слой 1"><circle class="cls-1" cx="81.5" cy="81.5" r="80"/><circle class="cls-2" cx="81.5" cy="81.5" r="80"/><circle class="cls-3" cx="81.5" cy="82.77" r="75"/><path class="cls-4" d="M139.17,93.33l-81.72,20A32,32,0,0,1,18.79,89.79h0A3,3,0,0,1,21,86.22l5.94-1.45L127,60.33a16.88,16.88,0,0,1,12.48,1.92A16.43,16.43,0,0,1,147,72.44l1.4,5.76A12.52,12.52,0,0,1,139.17,93.33Z"/><path class="cls-4" d="M116.82,60h14.89a14,14,0,0,1,14,14v4.59a0,0,0,0,1,0,0H123.87a10.7,10.7,0,0,1-10.7-10.7V63.67A3.66,3.66,0,0,1,116.82,60Z" transform="translate(-12.74 32.68) rotate(-13.72)"/><rect class="cls-4" x="70.47" y="76.7" width="12.97" height="12.97" rx="6.48" transform="translate(-17.53 20.63) rotate(-13.72)"/><rect class="cls-4" x="52.41" y="81.11" width="12.97" height="12.97" rx="6.48" transform="translate(-19.09 16.47) rotate(-13.72)"/><rect class="cls-4" x="88.61" y="72.39" width="12.97" height="12.97" rx="6.48" transform="translate(-15.99 24.8) rotate(-13.72)"/><ellipse class="cls-4" cx="88.48" cy="98.45" rx="22.55" ry="6.64" transform="translate(-26.53 32.93) rotate(-18.38)"/><path class="cls-4" d="M26.69,87.7l-3.8-15.56a1.94,1.94,0,0,1,1.44-2.36l3.7-.91a2.85,2.85,0,0,1,2.83.91L42,82.75l.28,1.14"/><path class="cls-5" d="M137,89.33l-81.72,20A32,32,0,0,1,16.58,85.79h0a2.94,2.94,0,0,1,2.16-3.56l5.94-1.45L124.81,56.33a16.82,16.82,0,0,1,12.47,1.93,16.43,16.43,0,0,1,7.46,10.18l1.41,5.76A12.52,12.52,0,0,1,137,89.33Z"/><path class="cls-6" d="M114.61,56h14.89a14,14,0,0,1,14,14v4.59a0,0,0,0,1,0,0H121.65A10.7,10.7,0,0,1,111,63.91V59.67A3.66,3.66,0,0,1,114.61,56Z" transform="translate(-11.86 32.04) rotate(-13.72)"/><rect class="cls-6" x="68.26" y="72.71" width="12.97" height="12.97" rx="6.48" transform="translate(-16.65 19.99) rotate(-13.72)"/><rect class="cls-6" x="50.2" y="77.12" width="12.97" height="12.97" rx="6.48" transform="translate(-18.21 15.83) rotate(-13.72)"/><rect class="cls-6" x="86.39" y="68.39" width="12.97" height="12.97" rx="6.48" transform="translate(-15.11 24.16) rotate(-13.72)"/><ellipse class="cls-6" cx="86.27" cy="94.45" rx="22.55" ry="6.64" transform="translate(-25.39 32.03) rotate(-18.38)"/><path class="cls-5" d="M24.47,83.71l-3.8-15.56a2,2,0,0,1,1.44-2.37l3.7-.9a2.81,2.81,0,0,1,2.83.91l11.15,13,.28,1.14"/><path class="cls-7" d="M11.32,87.41a75,75,0,0,1,125.4-55.53A75,75,0,1,0,31.1,138.15,74.72,74.72,0,0,1,11.32,87.41Z"/><text class="cls-8" transform="translate(63.87 139.42) scale(0.81 1)">5000</text></g></g></svg>