<svg xmlns="http://www.w3.org/2000/svg" viewBox="0 0 118.52 46.65"><defs><style>.cls-1{fill:#c2240c;}.cls-2{fill:#4d4d4d;}</style></defs><g id="Слой_2" data-name="Слой 2"><g id="Слой_1-2" data-name="Слой 1"><path class="cls-1" d="M106.72,45.47l-77.59-1A29.5,29.5,0,0,1,0,14.6H0a2.72,2.72,0,0,1,2.76-2.68L8.4,12l95.06,1.21a15.51,15.51,0,0,1,10.7,4.59,15.19,15.19,0,0,1,4.32,10.82l-.07,5.47A11.54,11.54,0,0,1,106.72,45.47Z"/><path class="cls-2" d="M92.22,15.2h12.36a14,14,0,0,1,14,14v3.15a0,0,0,0,1,0,0H99.27a10.7,10.7,0,0,1-10.7-10.7v-2.8a3.66,3.66,0,0,1,3.66-3.66Z" transform="translate(0.31 -1.32) rotate(0.73)"/><rect class="cls-2" x="47.52" y="18.11" width="11.96" height="11.96" rx="5.98" transform="translate(0.31 -0.68) rotate(0.73)"/><rect class="cls-2" x="30.38" y="17.89" width="11.96" height="11.96" rx="5.98" transform="translate(0.31 -0.46) rotate(0.73)"/><rect class="cls-2" x="64.71" y="18.43" width="11.96" height="11.96" rx="5.98" transform="translate(0.32 -0.9) rotate(0.73)"/><ellipse class="cls-2" cx="60.29" cy="40.38" rx="20.8" ry="6.12" transform="translate(-2.63 4.23) rotate(-3.93)"/><path class="cls-1" d="M7.56,16.56,7.75,1.79A1.81,1.81,0,0,1,9.58,0l3.51.05a2.61,2.61,0,0,1,2.32,1.46l7,14.15,0,1.09"/></g></g></svg>