<svg xmlns="http://www.w3.org/2000/svg" viewBox="0 0 118.34 47.21"><defs><style>.cls-1{fill:#00afbf;}.cls-2{fill:#4d4d4d;}</style></defs><g id="Слой_2" data-name="Слой 2"><g id="Слой_1-2" data-name="Слой 1"><path class="cls-1" d="M106.35,46.64,28.77,44.72A29.5,29.5,0,0,1,0,14.49H0A2.73,2.73,0,0,1,2.8,11.83L8.44,12l95,2.36a15.56,15.56,0,0,1,10.64,4.72,15.17,15.17,0,0,1,4.19,10.87l-.14,5.47A11.53,11.53,0,0,1,106.35,46.64Z"/><path class="cls-2" d="M92.11,16.33h12.36a14,14,0,0,1,14,14v3.15a0,0,0,0,1,0,0H99.16a10.7,10.7,0,0,1-10.7-10.7V20A3.66,3.66,0,0,1,92.11,16.33Z" transform="translate(0.65 -2.56) rotate(1.42)"/><rect class="cls-2" x="47.41" y="18.64" width="11.96" height="11.96" rx="5.98" transform="translate(0.63 -1.32) rotate(1.42)"/><rect class="cls-2" x="30.27" y="18.22" width="11.96" height="11.96" rx="5.98" transform="translate(0.61 -0.89) rotate(1.42)"/><rect class="cls-2" x="64.6" y="19.17" width="11.96" height="11.96" rx="5.98" transform="translate(0.65 -1.74) rotate(1.42)"/><ellipse class="cls-2" cx="59.98" cy="40.99" rx="20.8" ry="6.12" transform="translate(-2.22 3.46) rotate(-3.24)"/><path class="cls-1" d="M7.54,16.53,7.91,1.76A1.81,1.81,0,0,1,9.76,0l3.51.09a2.6,2.6,0,0,1,2.3,1.49l6.81,14.23,0,1.09"/></g></g></svg>