<svg xmlns="http://www.w3.org/2000/svg" viewBox="0 0 118.65 46.24"><defs><style>.cls-1{fill:#666;}.cls-2{fill:#e6e6e6;}.cls-3{fill:#4d4d4d;}</style></defs><g id="Слой_2" data-name="Слой 2"><g id="Слой_1-2" data-name="Слой 1"><rect class="cls-1" x="48.7" y="21.79" width="11.96" height="11.96" rx="5.98" transform="translate(0.11 -0.21) rotate(0.22)"/><rect class="cls-1" x="31.55" y="21.72" width="11.96" height="11.96" rx="5.98" transform="translate(0.11 -0.14) rotate(0.22)"/><rect class="cls-1" x="65.89" y="21.95" width="11.96" height="11.96" rx="5.98" transform="translate(0.11 -0.28) rotate(0.22)"/><path class="cls-1" d="M8.67,20.64,8.72,5.87a1.81,1.81,0,0,1,1.82-1.8h3.51a2.65,2.65,0,0,1,2.34,1.44l7.1,14.09V20.7"/><path class="cls-2" d="M107,44.61l-77.6-.3A29.51,29.51,0,0,1,0,14.69H0A2.72,2.72,0,0,1,2.73,12l5.64,0,95.07.36a15.56,15.56,0,0,1,10.74,4.5,15.15,15.15,0,0,1,4.42,10.77l0,5.47A11.56,11.56,0,0,1,107,44.61Z"/><path class="cls-3" d="M92.3,14.36h12.36a14,14,0,0,1,14,14v3.15a0,0,0,0,1,0,0H99.34a10.7,10.7,0,0,1-10.7-10.7V18a3.66,3.66,0,0,1,3.66-3.66Z" transform="translate(0.09 -0.4) rotate(0.22)"/><rect class="cls-3" x="47.6" y="17.72" width="11.96" height="11.96" rx="5.98" transform="translate(0.09 -0.21) rotate(0.22)"/><rect class="cls-3" x="30.45" y="17.65" width="11.96" height="11.96" rx="5.98" transform="translate(0.09 -0.14) rotate(0.22)"/><rect class="cls-3" x="64.8" y="17.89" width="11.96" height="11.96" rx="5.98" transform="translate(0.09 -0.27) rotate(0.22)"/><ellipse class="cls-3" cx="60.51" cy="39.92" rx="20.8" ry="6.12" transform="translate(-2.91 4.81) rotate(-4.44)"/><path class="cls-2" d="M7.57,16.58,7.63,1.8A1.8,1.8,0,0,1,9.44,0H13a2.61,2.61,0,0,1,2.33,1.45l7.1,14.09v1.08"/></g></g></svg>