<svg xmlns="http://www.w3.org/2000/svg" viewBox="0 0 565.77 225.78"><defs><style>.cls-1{fill:#f7931e;}.cls-2,.cls-7{fill:#e6e6e6;}.cls-3,.cls-8{fill:#fbb03b;}.cls-4,.cls-5{fill:none;stroke:#fbb03b;}.cls-4,.cls-5,.cls-7{stroke-miterlimit:10;}.cls-4,.cls-7{stroke-width:5px;}.cls-5{stroke-width:8px;}.cls-6{fill:#f2f2f2;}.cls-7{font-size:113.57px;stroke:#f7931e;font-family:a_BighausTitul-ExtraBold, a_BighausTitul;font-weight:800;letter-spacing:0.05em;}.cls-8{font-size:20.29px;font-family:EstrangeloEdessa, Estrangelo Edessa;letter-spacing:0.1em;}</style></defs><g id="Слой_2" data-name="Слой 2"><g id="Слой_1-2" data-name="Слой 1"><path class="cls-1" d="M556.41,0H116a7.55,7.55,0,0,0-4.31,1.35,2.48,2.48,0,0,1,0,.27V9.15a3.35,3.35,0,0,1-3.35,3.35h0A3.35,3.35,0,0,1,105,9.15V1.62a1.43,1.43,0,0,1,0-.29A7.59,7.59,0,0,0,100.76,0H9.36A9.35,9.35,0,0,0,0,9.36V216.42a9.36,9.36,0,0,0,9.36,9.36h91.4a7.57,7.57,0,0,0,4.3-1.33,1.27,1.27,0,0,1,0-.28v-7.53a3.33,3.33,0,0,1,3.34-3.34h0a3.33,3.33,0,0,1,3.34,3.34v7.53a2.11,2.11,0,0,1,0,.26,7.49,7.49,0,0,0,4.3,1.35H556.41a9.36,9.36,0,0,0,9.36-9.36V9.36A9.36,9.36,0,0,0,556.41,0Z"/><path class="cls-2" d="M105,10.88a1.62,1.62,0,0,0,1.62,1.62h3.45a1.63,1.63,0,0,0,1.62-1.62V1.62a2.48,2.48,0,0,0,0-.27,7.6,7.6,0,0,0-3.3,6,7.63,7.63,0,0,0-3.33-6,1.43,1.43,0,0,0,0,.29Z"/><path class="cls-2" d="M111.71,214.91a1.61,1.61,0,0,0-1.61-1.61h-3.46a1.61,1.61,0,0,0-1.61,1.61v9.26a1.27,1.27,0,0,0,0,.28,7.64,7.64,0,0,0,3.32-6,7.6,7.6,0,0,0,3.31,6,2.11,2.11,0,0,0,0-.26Z"/><rect class="cls-2" x="105.08" y="17.69" width="6.69" height="12.49" rx="1.62"/><path class="cls-3" d="M401.79,89.36h62.35a0,0,0,0,1,0,0V122a11.55,11.55,0,0,1-11.55,11.55H413.34A11.55,11.55,0,0,1,401.79,122V89.36A0,0,0,0,1,401.79,89.36Z"/><path class="cls-4" d="M426,57.7c-3.66-3.2-11-7.26-14.59-5S408,64.13,413.78,68.3s15.64,2.67,17.41-1C432.89,63.74,427,58.61,426,57.7Z"/><path class="cls-4" d="M440,57.7c3.66-3.2,11-7.26,14.59-5s3.38,11.41-2.4,15.58-15.64,2.67-17.42-1C433.05,63.74,438.92,58.61,440,57.7Z"/><rect class="cls-3" x="398.11" y="69.32" width="69.72" height="18.12" rx="4.37"/><rect class="cls-1" x="410.85" y="107.94" width="44.23" height="7.06" transform="translate(544.44 -321.49) rotate(90)"/><rect class="cls-1" x="401.79" y="100.47" width="62.35" height="7.06" transform="translate(865.93 208) rotate(180)"/><path class="cls-5" d="M218.65,50.76h-.73a6.56,6.56,0,0,0-6.56,6.56v6.56h-6.65a6.57,6.57,0,0,0,0,13.13h6.65V129.2a6.57,6.57,0,0,0,6.56,6.57h.73a6.57,6.57,0,0,0,6.56-6.57V57.32A6.56,6.56,0,0,0,218.65,50.76Z"/><path class="cls-5" d="M288.13,57.32a6.57,6.57,0,0,0-6.57-6.56H245.62a6.56,6.56,0,0,0-6.56,6.56V93.26c0,.14,0,.27,0,.41s0,.27,0,.42V130s0,.06,0,.1,0,.07,0,.1a6.57,6.57,0,0,0,6.56,6.57h35.94a6.57,6.57,0,0,0,6.57-6.57h0V94.29c0-.14,0-.27-.05-.41s.05-.27.05-.41V57.53a.3.3,0,0,0,0-.1A.43.43,0,0,0,288.13,57.32ZM252.87,93.67c0-.14,0-.27,0-.41V63.88h21.37V93.47c0,.14,0,.27,0,.41s0,.27,0,.41v29.38H252.91V94.09C252.91,93.94,252.87,93.81,252.87,93.67Z"/><path class="cls-5" d="M359.57,59l-18,31.12c-.07.12-.1.25-.17.38s-.17.21-.24.34l-18,31.12a6.58,6.58,0,0,0,2.4,9l.63.36a6.57,6.57,0,0,0,9-2.41l18-31.12c.07-.12.1-.25.17-.38s.17-.21.24-.33l18-31.13a6.57,6.57,0,0,0-2.4-9l-.63-.37A6.57,6.57,0,0,0,359.57,59Z"/><circle class="cls-5" cx="321.78" cy="79.14" r="12.39"/><circle class="cls-5" cx="372.27" cy="110" r="12.39"/><rect class="cls-2" x="105.08" y="42.68" width="6.69" height="12.49" rx="1.62"/><rect class="cls-2" x="105.08" y="67.66" width="6.69" height="12.49" rx="1.62"/><rect class="cls-2" x="105.08" y="92.65" width="6.69" height="12.49" rx="1.62"/><rect class="cls-2" x="104.96" y="117.63" width="6.69" height="12.49" rx="1.62"/><rect class="cls-2" x="105.08" y="142.62" width="6.69" height="12.49" rx="1.62"/><rect class="cls-2" x="105.08" y="167.6" width="6.69" height="12.49" rx="1.62"/><rect class="cls-6" x="107.44" y="167.14" width="5.72" height="35.93" rx="1.4" transform="translate(150.64 396.78) rotate(-160)"/><polygon class="cls-6" points="100.67 205.1 106.04 207.41 103.28 216.36 97.91 214.05 100.67 205.1"/><path class="cls-6" d="M89.17,206.64h0a2.75,2.75,0,0,1,3.66-2l9.74,4.19a3.58,3.58,0,0,1,1.7,4.33h0a2.76,2.76,0,0,1-3.66,2L90.87,211A3.58,3.58,0,0,1,89.17,206.64Z"/><path class="cls-6" d="M96.37,193.11h0a3.56,3.56,0,0,1,1.71,4.33L94.54,209a2.77,2.77,0,0,1-3.67,2h0a3.58,3.58,0,0,1-1.7-4.33l3.54-11.51A2.75,2.75,0,0,1,96.37,193.11Z"/><rect class="cls-6" x="97.41" y="189.49" width="5.72" height="16.08" rx="2.86" transform="translate(320.18 170.88) rotate(110)"/><path class="cls-6" d="M102.42,167.82l-2.79,1.24a1.4,1.4,0,0,0-.77,1.68l13.29,44.1a1.4,1.4,0,0,0,1.91.88l2.79-1.24a1.41,1.41,0,0,0,.77-1.68l-13.29-44.11A1.4,1.4,0,0,0,102.42,167.82Z"/><path class="cls-6" d="M126.74,206.43h0c-.54-1.8-2.18-2.72-3.66-2.07l-9.74,4.3a3.71,3.71,0,0,0-1.71,4.44h0c.54,1.8,2.18,2.73,3.66,2.07l9.74-4.29A3.72,3.72,0,0,0,126.74,206.43Z"/><path class="cls-6" d="M119.53,192.55h0a3.72,3.72,0,0,0-1.71,4.44l3.55,11.81c.54,1.8,2.18,2.73,3.66,2.08h0a3.72,3.72,0,0,0,1.71-4.45l-3.54-11.81C122.66,192.82,121,191.9,119.53,192.55Z"/><path class="cls-6" d="M123.2,194.62h0c-.54-1.8-2.18-2.72-3.67-2.07l-9.74,4.3a3.71,3.71,0,0,0-1.7,4.44h0c.54,1.8,2.18,2.73,3.66,2.07l9.74-4.29A3.74,3.74,0,0,0,123.2,194.62Z"/><text class="cls-7" transform="translate(179.07 199.88) scale(0.81 1)">COUNT</text><text class="cls-8" transform="matrix(0, 0.81, -1, 0, 44.11, 48.92)">ENDLESS VISION</text></g></g></svg>